<?xml version="1.0" standalone="no"?>
<!DOCTYPE svg PUBLIC "-//W3C//DTD SVG 1.1//EN" "http://www.w3.org/Graphics/SVG/1.1/DTD/svg11.dtd" >
<svg xmlns="http://www.w3.org/2000/svg" xmlns:xlink="http://www.w3.org/1999/xlink" version="1.1">
<metadata></metadata>
<defs>
<font id="crescentregular" horiz-adv-x="512" >
<font-face units-per-em="2048" ascent="1638" descent="-410" />
<missing-glyph horiz-adv-x="500" />
<glyph horiz-adv-x="0" />
<glyph horiz-adv-x="682" />
<glyph unicode=" " />
<glyph unicode="!" horiz-adv-x="585" d="M154 119q0 57 41 97t100 40q57 0 97 -40t40 -97q0 -59 -40 -100.5t-97 -41.5q-59 0 -100 41t-41 101zM199 414q53 16 98 16q43 0 96 -16l-2 1153q-45 -14 -96 -15q-51 0 -96 15v-1153z" />
<glyph unicode="&#x22;" horiz-adv-x="907" d="M72 1145q188 96 188 188q-51 0 -85 37t-34 82q0 59 42 98t108 39q45 0 82 -24.5t59 -75.5q8 -29 8 -64q0 -92 -63.5 -197.5t-220.5 -195.5zM467 1145q188 96 188 188q-51 0 -84.5 37t-33.5 82q0 59 42 98t107 39q45 0 82 -24.5t59 -75.5q9 -29 9 -64q0 -92 -63.5 -197.5 t-221.5 -195.5z" />
<glyph unicode="$" horiz-adv-x="1075" d="M51 276l158 80q0 -10 36 -62t106.5 -98t176.5 -46q72 0 136.5 32.5t105.5 91t41 129.5q0 76 -44 131.5t-108.5 94.5t-175.5 92q-127 61 -203.5 109.5t-131 123t-54.5 181.5q0 166 106.5 280.5t276.5 143.5v186q37 -14 80 -14t80 14v-180q262 -23 367 -248l-136 -84 q0 8 -31.5 49t-98 77t-173.5 36q-106 0 -187 -63.5t-81 -190.5q0 -62 37 -106t93 -76.5t153 -75.5q133 -59 218 -111.5t144 -143.5t59 -225q0 -150 -97 -265t-267 -148v-183q-37 14 -80 15q-43 0 -80 -15v175q-166 10 -274.5 96t-151.5 198z" />
<glyph unicode="&#x26;" horiz-adv-x="1677" d="M113 424q0 133 62.5 241.5t189.5 174.5q-123 53 -186.5 137t-63.5 188q0 127 55 223.5t155.5 148.5t231.5 52q141 0 251 -49t177 -205l-145 -86q-86 176 -281 176q-63 0 -120.5 -31.5t-93.5 -91t-36 -135.5q0 -53 37 -110.5t125 -96t229 -34.5v-162q-16 2 -45 2 q-129 0 -206.5 -55.5t-109.5 -133t-32 -151.5q0 -127 85 -206t214 -79q295 0 332 357q100 -23 172 -23q131 0 206 54.5t75 138.5q0 104 -50.5 159.5t-146.5 55.5q-43 0 -76 -14.5t-65 -45.5l-92 127q100 96 235 97q184 0 281.5 -99.5t97.5 -279.5q0 -95 -53.5 -178.5 t-146.5 -136t-210 -52.5q-41 0 -96 10q-25 -164 -145.5 -249t-319.5 -85q-158 0 -268.5 63.5t-166.5 166t-56 217.5z" />
<glyph unicode="'" d="M72 1145q188 96 188 188q-51 0 -85 37t-34 82q0 59 42 98t108 39q45 0 82 -24.5t59 -75.5q8 -29 8 -64q0 -92 -63.5 -197.5t-220.5 -195.5z" />
<glyph unicode="," d="M51 -188q188 96 189 188q-51 0 -85 37t-34 82q0 59 42 98t107 39q45 0 82 -24.5t60 -75.5q8 -29 8 -64q0 -92 -63.5 -197.5t-221.5 -195.5z" />
<glyph unicode="-" horiz-adv-x="782" d="M113 444v164h557v-164h-557z" />
<glyph unicode="." horiz-adv-x="450" d="M86 119q0 57 41 97t100 40q57 0 97.5 -40t40.5 -97q0 -59 -40 -100.5t-98 -41.5q-59 0 -100 41t-41 101z" />
<glyph unicode="0" horiz-adv-x="1226" d="M98 768q0 248 36 423t147.5 286.5t328.5 111.5q295 0 406.5 -227t111.5 -594q0 -236 -35.5 -404.5t-150.5 -277.5t-332 -109q-288 0 -400 220.5t-112 570.5zM293 805q0 -197 17.5 -332t87 -233.5t214.5 -98.5q148 0 218.5 86t87 207t16.5 309q0 207 -16.5 344.5 t-87 237.5t-218.5 100q-145 0 -214.5 -88t-87 -214t-17.5 -318z" />
<glyph unicode="1" horiz-adv-x="765" d="M33 1208l405 359q46 -15 99 -15q51 0 96 15v-1567h-195v1327l-274 -244z" />
<glyph unicode="2" horiz-adv-x="1056" d="M61 1288q84 184 204 242.5t267 58.5q213 0 323 -110.5t110 -296.5q0 -123 -61.5 -244t-144.5 -220.5t-218 -240.5q-106 -111 -164 -178.5t-80 -124.5h688v-174h-913v174q0 55 69.5 143.5t218.5 249.5q133 143 213 237.5t138.5 193t58.5 176.5q2 98 -64.5 169.5 t-185.5 71.5q-76 0 -153.5 -47t-145.5 -162z" />
<glyph unicode="3" horiz-adv-x="1060" d="M72 1323q119 266 448 266q125 0 222.5 -51t152.5 -144.5t61 -211.5q4 -100 -49 -187.5t-162 -144.5q123 -59 183.5 -163.5t60.5 -246.5q0 -135 -58.5 -240.5t-163.5 -164t-241 -58.5q-152 0 -271.5 62.5t-174.5 167.5l172 102q39 -74 113.5 -112.5t177.5 -34.5 q111 0 181.5 78.5t70.5 191.5q0 344 -439 326h-2l-6 153h6q152 6 244 49.5t129 101.5t35 112q-4 96 -71.5 168.5t-176.5 72.5q-86 0 -163 -36t-124 -142z" />
<glyph unicode="4" horiz-adv-x="1222" d="M72 457v174h4l696 936q45 -14 98 -15q51 0 97 15v-936h184v-174h-184v-457h-195v457h-700zM287 631h485v661z" />
<glyph unicode="5" horiz-adv-x="1105" d="M72 162l137 119q39 -57 128 -90t173 -33q137 0 213 78.5t76 197.5q0 184 -75 273.5t-212 89.5q-117 0 -197 -80h-188v850h793v-174h-609l2 -459q90 37 201 37q246 0 362.5 -128t116.5 -411q0 -125 -56 -228.5t-165.5 -165t-259.5 -61.5q-121 0 -249 50.5t-191 134.5z" />
<glyph unicode="6" horiz-adv-x="1171" d="M72 506q0 96 39 193.5t150.5 277.5t383.5 590q55 -14 119 -15q61 0 117 15l-387 -568q41 6 79 7q141 0 257 -71t182.5 -186.5t66.5 -240.5q0 -135 -61.5 -257t-177 -198t-267.5 -76q-145 0 -259.5 69t-178 189.5t-63.5 270.5zM266 506q0 -158 76 -261.5t229 -103.5 q158 0 233 103.5t75 261.5q0 145 -78 240.5t-230 95.5q-158 0 -231.5 -94.5t-73.5 -241.5z" />
<glyph unicode="7" horiz-adv-x="1019" d="M72 1393v174h876l-610 -1567h-193l543 1393h-616z" />
<glyph unicode="8" horiz-adv-x="1099" d="M61 440q0 119 64.5 232.5t179.5 175.5q-86 59 -137 149t-51 181q0 96 54 192t154.5 157.5t231.5 61.5q123 0 225.5 -62.5t162 -158.5t59.5 -190q0 -96 -55.5 -190.5t-149.5 -151.5q110 -66 174.5 -175.5t64.5 -220.5q0 -113 -59 -220t-172 -175t-260 -68q-137 0 -249 69 t-174.5 176.5t-62.5 217.5zM262 442q0 -127 69.5 -215t217.5 -88q153 0 221 87t68 216q0 125 -71 218.5t-218 93.5q-152 0 -219.5 -92.5t-67.5 -219.5zM319 1180q0 -115 55.5 -192t184.5 -77q133 0 188.5 77t55.5 192q0 106 -56.5 175.5t-187.5 69.5q-240 1 -240 -245z" />
<glyph unicode="9" horiz-adv-x="1159" d="M70 1059q0 135 61.5 257t177 197.5t266.5 75.5q145 0 260 -68.5t178.5 -189.5t63.5 -270q0 -96 -39 -193.5t-150.5 -277.5t-383.5 -590h-236l387 567q-41 -6 -80 -6q-141 0 -256.5 70.5t-182 186.5t-66.5 241zM270 1061q0 -146 78 -241t230 -95q158 0 231.5 94t73.5 242 q0 158 -76 261t-229 103q-158 0 -233 -103t-75 -261z" />
<glyph unicode=":" horiz-adv-x="483" d="M102 119q0 57 41 97t101 40q57 0 97 -40t40 -97q0 -59 -40 -100.5t-97 -41.5q-60 0 -101 41t-41 101zM102 805q0 57 41 97t101 40q57 0 97 -40t40 -97q0 -59 -40 -100t-97 -41q-60 0 -101 40.5t-41 100.5z" />
<glyph unicode=";" d="M51 -188q188 96 189 188q-51 0 -85 37t-34 82q0 59 42 98t107 39q45 0 82 -24.5t60 -75.5q8 -29 8 -64q0 -92 -63.5 -197.5t-221.5 -195.5zM137 793q0 57 41 97t101 40q57 0 97 -40t40 -97q0 -59 -40 -100.5t-97 -41.5q-60 0 -101 41t-41 101z" />
<glyph unicode="?" horiz-adv-x="1101" d="M51 1167q0 143 73 238.5t183.5 139.5t224.5 44q144 0 260.5 -54t187.5 -167t71 -278q0 -145 -70 -243.5t-184.5 -146t-251.5 -47.5l2 -250q-53 16 -96 17q-45 0 -99 -17v412h193q78 0 152.5 35t121.5 97.5t47 142.5q0 166 -95 245.5t-236 79.5q-59 0 -129 -25.5t-120 -81 t-50 -139.5q-43 14 -89 15q-43 0 -96 -17zM311 119q0 57 41 97t101 40q57 0 97 -40t40 -97q0 -59 -40 -100.5t-97 -41.5q-59 0 -100.5 41t-41.5 101z" />
<glyph unicode="A" horiz-adv-x="1392" d="M51 0l549 1567q43 -14 98 -15q53 0 97 15l546 -1567h-194l-166 477h-567l-168 -477h-195zM481 672h432l-215 616z" />
<glyph unicode="B" horiz-adv-x="1224" d="M133 2v1565h201h176h115q150 0 258 -60.5t162.5 -155t54.5 -190.5q0 -106 -54.5 -205.5t-171.5 -158.5q140 -60 209.5 -165.5t69.5 -225.5q0 -115 -55.5 -207.5t-155.5 -144.5t-229 -52h-580zM326 176l168 -4q227 0 340.5 48t113.5 186q0 139 -109.5 222t-344.5 83h-168 v-535zM326 877q4 -2 16 -3l170 -2q219 0 306 82t87 207q0 129 -108.5 183.5t-284.5 54.5h-162q-8 0 -24 -4v-518z" />
<glyph unicode="C" horiz-adv-x="1433" d="M72 745q0 258 86 449.5t242.5 293t367.5 101.5q154 0 255 -33.5t166.5 -99t123.5 -174.5l-160 -84q-57 106 -140 161.5t-241 55.5q-143 0 -256 -85t-176.5 -236.5t-63.5 -345.5q0 -152 63.5 -290.5t173.5 -222t241 -83.5q266 0 385 217l182 -84q-100 -170 -239.5 -239 t-331.5 -69q-203 0 -356.5 101.5t-237.5 276.5t-84 390z" />
<glyph unicode="D" horiz-adv-x="1378" d="M133 6v1561h387q234 0 413 -98.5t278.5 -279.5t99.5 -423q0 -385 -208 -572.5t-583 -187.5h-387zM326 180h192q301 0 451.5 159t150.5 427q0 176 -69.5 318.5t-205.5 225.5t-327 83h-192v-1213z" />
<glyph unicode="E" horiz-adv-x="1214" d="M133 1567h969v-174h-774l2 -512h731v-174h-731l2 -512h770v-195h-965z" />
<glyph unicode="F" horiz-adv-x="1173" d="M133 1567h969v-174h-774l2 -512h635v-174h-635l2 -707h-195z" />
<glyph unicode="G" horiz-adv-x="1478" d="M72 745q0 231 79.5 423t242.5 306.5t403 114.5q188 0 321 -55t240 -215l-137 -94q-84 121 -186.5 155.5t-233.5 34.5q-164 0 -283 -97t-180.5 -251t-61.5 -319q0 -154 63.5 -291.5t181.5 -221t270 -83.5q115 0 203.5 30.5t141 74.5t64.5 83v289h-444v174h641v-529 q-23 -61 -99.5 -129.5t-208 -118t-303.5 -49.5q-207 0 -369.5 102.5t-253.5 277.5t-91 388z" />
<glyph unicode="H" horiz-adv-x="1406" d="M133 0v1567q49 -14 100 -15q53 0 95 15l4 -686h737v686q45 -14 94 -15q51 0 97 15l14 -1567h-205v707h-735l4 -707h-205z" />
<glyph unicode="I" horiz-adv-x="507" d="M154 0v1567q49 -15 100 -15q55 0 100 15v-1567h-200z" />
<glyph unicode="J" horiz-adv-x="1009" d="M72 184l137 92q0 -6 27.5 -38.5t79 -61.5t124.5 -29q80 0 131.5 31t81 117t29.5 244v1028q45 -15 96 -15q53 0 99 15v-1028q0 -293 -100.5 -430.5t-336.5 -137.5q-121 0 -202.5 47.5t-123.5 101.5t-42 64z" />
<glyph unicode="K" horiz-adv-x="1312" d="M133 0v1567q45 -14 98 -15q51 0 97 15v-754l649 754q55 -14 125 -15q72 0 123 15l-680 -752l696 -815h-225l-586 688l-102 -115v-573h-195z" />
<glyph unicode="L" horiz-adv-x="1193" d="M133 1567q45 -14 98 -15q51 0 97 15l4 -1372h770v-195h-965z" />
<glyph unicode="M" horiz-adv-x="1787" d="M133 0h195v1280l469 -1280h194l469 1255v-1255h195v1567q-63 -14 -137 -15q-72 0 -138 15l-477 -1331l-495 1331q-63 -14 -138 -15q-72 0 -137 15v-1567z" />
<glyph unicode="N" horiz-adv-x="1458" d="M133 0h195v1249l788 -1249h209v1567q-45 -14 -96 -15q-53 0 -99 15v-1276l-788 1276q-49 -14 -104 -15q-55 0 -105 15v-1567z" />
<glyph unicode="O" horiz-adv-x="1619" d="M72 768q0 227 84 413.5t249.5 297t405.5 110.5q225 0 393 -112.5t256 -300t88 -408.5q0 -215 -83 -395t-248.5 -288t-405.5 -108q-221 0 -390 109t-259 290t-90 392zM276 772q0 -158 68 -303t190.5 -236.5t278.5 -91.5q170 0 290 90.5t180 234.5t60 306 q0 164 -64.5 314.5t-185 244.5t-280.5 94q-168 0 -290 -93t-184.5 -242.5t-62.5 -317.5z" />
<glyph unicode="P" horiz-adv-x="1165" d="M133 0v1567h377q254 0 419 -105.5t165 -345.5q0 -111 -55.5 -213t-186.5 -169.5t-342 -67.5h-184v-666h-193zM326 840l186 -2q221 0 311 77.5t90 200.5q0 137 -106.5 207t-294.5 70h-186v-553z" />
<glyph unicode="Q" horiz-adv-x="1619" d="M72 768q0 215 84 403.5t250.5 303t404.5 114.5q223 0 391 -116.5t257 -305t89 -399.5q0 -180 -64.5 -343t-187.5 -273l119 -146l-139 -110l-127 155q-152 -74 -338 -74q-221 0 -389 113t-259 295t-91 383zM276 772q0 -145 69 -291.5t190.5 -243t277.5 -96.5q121 1 219 52 l-297 360l142 111l297 -363q82 94 125.5 220t43.5 251q0 154 -65.5 305.5t-186 249.5t-278.5 98q-166 0 -288 -98t-185.5 -248.5t-63.5 -306.5z" />
<glyph unicode="R" horiz-adv-x="1271" d="M133 0v1567h397q254 0 419 -105.5t165 -345.5q0 -156 -104.5 -281.5t-335.5 -158.5l506 -676h-238l-487 666h-129v-666h-193zM326 840l206 -2q221 0 311.5 77.5t90.5 200.5q0 137 -106.5 207t-295.5 70h-206v-553z" />
<glyph unicode="S" horiz-adv-x="1089" d="M51 279l160 81q0 -10 36 -63t107.5 -99t180.5 -46q72 0 138 32.5t107 92t41 131.5q0 76 -44 133t-110.5 97t-179.5 93q-129 61 -206.5 110.5t-132 126t-54.5 183.5q0 127 63.5 227.5t175 155.5t249.5 55q315 0 436 -254l-139 -84q0 8 -32 49t-100.5 78t-175.5 37 q-108 0 -190 -64.5t-82 -193.5q0 -61 38 -106t93 -78t156 -78q135 -61 221 -114.5t147.5 -145.5t61.5 -227q0 -115 -58.5 -213.5t-169 -158t-264.5 -59.5q-186 0 -307 90.5t-166 211.5z" />
<glyph unicode="T" horiz-adv-x="1218" d="M31 1393v174h1157v-174h-479l4 -1393h-195l-4 1393h-483z" />
<glyph unicode="U" horiz-adv-x="1347" d="M113 578v989q45 -14 98 -15q51 0 96 15v-989q0 -197 93.5 -311.5t283.5 -114.5q184 0 270 114.5t86 313.5v987q46 -15 99 -15q51 0 96 15v-989q0 -293 -124 -447t-429 -154q-219 0 -344 72t-175 203t-50 326z" />
<glyph unicode="V" horiz-adv-x="1413" d="M51 1567q51 -14 109 -15q57 0 106 15l443 -1284l438 1284q51 -15 108 -15t107 15l-555 -1567h-195z" />
<glyph unicode="W" horiz-adv-x="2066" d="M51 1567q49 -14 107 -15q57 0 108 15l350 -1243l320 1243q45 -14 98 -15q51 0 96 15l320 -1243l350 1243q52 -15 109 -15t106 15l-481 -1567h-174l-326 1206l-327 -1206h-175z" />
<glyph unicode="X" horiz-adv-x="1476" d="M86 2l516 784l-514 781q49 -14 113 -15q66 0 114 15l424 -649l424 651q49 -14 113 -15q63 0 113 15l-515 -783l517 -784h-226l-426 653l-426 -653h-227z" />
<glyph unicode="Y" horiz-adv-x="1413" d="M31 1567q55 -14 112 -15q61 0 113 15l455 -723l446 723q55 -14 113 -15q61 0 112 15l-579 -940l4 -627h-195l-4 627z" />
<glyph unicode="Z" horiz-adv-x="1320" d="M113 0v174l858 1219h-834v174h1071v-174l-854 -1219h844v-174h-1085z" />
<glyph unicode="a" horiz-adv-x="1030" d="M70 283q0 201 182 271.5t399 70.5q41 0 67.5 -2t35.5 -2q0 135 -49.5 193t-186.5 58q-68 0 -129 -22.5t-104 -50t-43 -29.5l-88 123q0 6 49 46t130 74t185 34q227 0 323.5 -116t96.5 -321v-612q-28 0 -92 -1h-39q-34 0 -53 1l4 90q0 -8 -39 -36.5t-106.5 -52.5 t-157.5 -24q-162 0 -273.5 78t-111.5 230zM256 287q0 -68 55.5 -101.5t143.5 -33.5q74 0 141.5 16t109.5 32.5t52 22.5v234q-58 4 -103 4q-162 0 -280.5 -39t-118.5 -135z" />
<glyph unicode="b" horiz-adv-x="1224" d="M133 0v1567q45 -14 98 -15q51 0 97 15v-695q41 84 114.5 129.5t192.5 45.5q156 0 274.5 -76t181 -200t62.5 -263q0 -129 -67.5 -253t-186.5 -201t-264 -77q-225 0 -307 166v-143h-195zM317 508q0 -119 45.5 -201t118 -122t152.5 -40q102 0 175 51.5t109.5 133.5t36.5 178 q0 160 -79.5 266.5t-241.5 106.5q-315 0 -316 -373z" />
<glyph unicode="c" horiz-adv-x="1011" d="M70 483q0 254 132 409t378 155q217 0 342 -138l-115 -108q0 4 -24.5 21.5t-75 33.5t-125.5 16q-166 0 -239 -107.5t-73 -279.5q0 -80 33 -156.5t103.5 -125.5t175.5 -49q90 0 151.5 23.5t94 50t32.5 30.5l111 -98q-66 -88 -170.5 -135.5t-220.5 -47.5q-152 0 -267.5 70 t-179 185.5t-63.5 250.5z" />
<glyph unicode="d" horiz-adv-x="1224" d="M72 506q0 139 63.5 263t181 201t273.5 77q223 0 307 -187v705q45 -15 98 -15q51 0 97 15v-1565h-195v137q-39 -78 -112.5 -119t-194.5 -41q-145 0 -264 77t-186.5 200t-67.5 252zM270 506q0 -96 37 -178t109.5 -132.5t175.5 -50.5q82 0 153.5 40t116.5 121t45 200 q0 166 -72.5 270.5t-242.5 104.5q-162 0 -242 -107.5t-80 -267.5z" />
<glyph unicode="e" horiz-adv-x="1067" d="M72 512q0 123 42 245t146.5 206t278.5 84q197 0 297 -85t128.5 -198t28.5 -248v-70h-731q0 -73 37 -144t103.5 -115t150.5 -44q98 0 171 28t115 60.5t42 36.5l94 -116q0 -6 -53.5 -51.5t-146.5 -84.5t-222 -39q-125 0 -234.5 60.5t-178 181.5t-68.5 293zM262 588h541 q0 71 -12.5 128.5t-70.5 106.5t-181 49q-115 0 -176.5 -58t-81 -122.5t-19.5 -103.5z" />
<glyph unicode="f" horiz-adv-x="737" d="M72 881v143h94v184q0 123 46 210t121 131t159 44q113 0 215 -92l-99 -117q-53 37 -108 37q-78 0 -109 -57t-31 -209v-131h269v-143h-269l-2 -881h-194l2 881h-94z" />
<glyph unicode="g" horiz-adv-x="1218" d="M72 520q0 133 64.5 255t181 197t266.5 75q127 0 199.5 -48.5t113.5 -134.5l4 160q43 -14 92 -14q47 0 90 14l2 -1120q0 -246 -127 -346.5t-376 -100.5q-106 0 -212 40t-192 112l109 129q129 -117 313 -117q125 0 210 50t85 214l-2 246q-39 -80 -111.5 -117t-191.5 -37 q-150 0 -267.5 78t-184 203t-66.5 262zM270 520v-7q0 -154 82 -259q84 -109 240 -109q121 0 213 84t102 281q0 197 -92 284t-225 87q-154 -2 -239 -105q-81 -99 -81 -242v-14z" />
<glyph unicode="h" horiz-adv-x="1179" d="M133 0v1567q49 -14 96 -15q47 0 99 15v-627q115 106 317 107q221 0 321.5 -120t100.5 -286v-641h-195v549q0 328 -264 328q-127 0 -203.5 -70t-76.5 -197v-610h-195z" />
<glyph unicode="i" horiz-adv-x="524" d="M133 1329q0 53 38 90t93 37q53 0 90 -37t37 -90q0 -55 -37 -93t-90 -38q-55 0 -93 38t-38 93zM166 0v1024q45 -14 96 -14q53 0 98 14v-1024h-194z" />
<glyph unicode="j" horiz-adv-x="671" d="M-37 -340l98 117q53 -37 109 -37q78 0 108.5 57.5t30.5 208.5l2 1018q45 -14 99 -14q51 0 96 14l-2 -1071q0 -123 -46 -210t-121 -131t-159 -44q-115 0 -215 92zM281 1329q0 53 37.5 90t93.5 37q53 0 90 -37t37 -90q0 -55 -37 -93t-90 -38q-56 0 -93.5 38t-37.5 93z" />
<glyph unicode="k" horiz-adv-x="1155" d="M133 0v1567q45 -14 98 -15q51 0 97 15v-955l481 418q51 -14 133 -14t131 14l-596 -493l606 -537h-274l-481 444v-444h-195z" />
<glyph unicode="l" horiz-adv-x="460" d="M133 0v1567q45 -15 98 -15q51 0 97 15v-1567h-195z" />
<glyph unicode="m" horiz-adv-x="1810" d="M133 0v1024q49 -14 92 -14q41 0 92 14v-90q117 113 322 113q100 0 161.5 -40t112.5 -114q127 154 396 154q129 0 211 -59.5t119.5 -152t37.5 -194.5v-641h-184v549q0 166 -50 247t-171 81q-160 0 -217.5 -100.5t-57.5 -227.5v-549h-184v549q0 152 -42 240t-169 88 q-139 0 -212 -72t-73 -273v-532h-184z" />
<glyph unicode="n" horiz-adv-x="1200" d="M133 0v1024q49 -14 96 -14q49 0 99 14v-84q115 106 317 107q221 0 321.5 -120t100.5 -286v-641h-195v549q0 328 -264 328q-127 0 -203.5 -70t-76.5 -197v-610h-195z" />
<glyph unicode="o" horiz-adv-x="1163" d="M72 496q0 137 61.5 264t177 207t267.5 80q143 0 260.5 -81t185.5 -209t68 -261q0 -127 -63.5 -247t-181.5 -196t-269 -76q-142 0 -257.5 76t-182 197t-66.5 246zM272 498q0 -145 78 -244.5t230 -99.5q157 0 234 98t77 246q0 158 -79 266t-232 108q-158 0 -233 -107.5 t-75 -266.5z" />
<glyph unicode="p" horiz-adv-x="1226" d="M133 -520l2 1544q45 -14 101 -14q49 0 94 14v-164q86 186 309 187q145 0 264 -73t185.5 -190.5t66.5 -246.5q0 -139 -62.5 -268.5t-179 -210.5t-272.5 -81q-125 0 -199.5 38t-111.5 118l-2 -653h-195zM319 539q0 -219 94.5 -307.5t225.5 -88.5q160 0 238.5 117t78.5 283 q0 143 -82.5 238.5t-236.5 97.5q-131 0 -224.5 -83t-93.5 -257z" />
<glyph unicode="q" horiz-adv-x="1224" d="M72 506q0 139 63.5 263t181 201t273.5 77q223 0 307 -187l-2 166q55 -16 102 -16q49 0 93 14l2 -1544h-195l-4 649q-80 -152 -303 -152q-145 0 -264 77t-186.5 200t-67.5 252zM270 506q0 -96 37 -178t109.5 -132.5t175.5 -50.5q119 0 210 81t103 235l2 71q-6 199 -97 274 t-218 75q-162 0 -242 -107.5t-80 -267.5z" />
<glyph unicode="r" horiz-adv-x="821" d="M133 0v1024q49 -14 96 -14q49 0 99 14v-133q20 29 28 37q96 96 258 96q101 0 177 -47l-99 -182q-53 41 -123 41q-59 0 -125 -29q-66 -25 -90 -80t-26 -137v-590h-195z" />
<glyph unicode="s" horiz-adv-x="872" d="M51 184q33 -76 124 -141.5t235 -65.5q193 0 292 91.5t99 228.5q0 94 -46 152.5t-110.5 87t-165.5 55.5q-111 33 -160 60.5t-49 86.5q0 63 51.5 98t131.5 35q59 0 111 -25.5t88 -55t36 -33.5l111 104q0 6 -50.5 54.5t-128 89.5t-171.5 41q-109 0 -194 -47.5t-132 -118 t-47 -142.5q0 -96 47 -154.5t112.5 -86t170.5 -58.5q109 -31 159.5 -58.5t50.5 -84.5q0 -80 -59 -111.5t-147 -31.5q-72 0 -129.5 33.5t-106.5 101.5z" />
<glyph unicode="t" horiz-adv-x="843" d="M92 881v143h137v410q45 -14 99 -15q51 0 96 15v-410h225v-143h-223v-465q0 -152 30.5 -209t108.5 -57q57 0 109 36l98 -116q-102 -93 -215 -93q-84 0 -158.5 44.5t-121 131.5t-46.5 209v519h-139z" />
<glyph unicode="u" horiz-adv-x="1169" d="M137 475v549q43 -14 92 -14t93 14v-549q0 -139 64.5 -235.5t203.5 -96.5q137 0 201.5 96.5t64.5 237.5v547q43 -14 92 -14t92 14v-549q0 -238 -103 -368t-349 -130q-225 0 -340 120q-111 116 -111 361v17z" />
<glyph unicode="v" horiz-adv-x="1052" d="M41 1024q45 -14 98 -14q51 0 97 14l292 -793l289 795q45 -14 98 -14q51 0 97 14l-389 -1026h-185z" />
<glyph unicode="w" horiz-adv-x="1701" d="M41 1024q45 -14 98 -14q51 0 97 14l270 -774l254 774q41 -14 86 -14q47 0 88 14l252 -778l280 778q46 -14 99 -14q51 0 96 14l-385 -1024h-184l-244 756l-246 -756h-184z" />
<glyph unicode="x" horiz-adv-x="1191" d="M82 10l397 500l-373 514q57 -10 103 -10q47 0 102 10l283 -408l285 408q55 -10 100 -10q47 0 104 10l-374 -514l401 -510h-205l-311 414l-307 -404h-205z" />
<glyph unicode="y" horiz-adv-x="1052" d="M41 1024q45 -14 96 -14q53 0 99 14l294 -784l287 786q45 -14 96 -14q53 0 99 14l-580 -1546h-178l190 522z" />
<glyph unicode="z" horiz-adv-x="1003" d="M72 0v154l622 714l-606 2v154h844v-156l-637 -714h631v-154h-854z" />
<glyph unicode="&#xa0;" />
<glyph unicode="&#xad;" horiz-adv-x="782" d="M113 444v164h557v-164h-557z" />
<glyph unicode="&#x2000;" horiz-adv-x="872" />
<glyph unicode="&#x2001;" horiz-adv-x="1745" />
<glyph unicode="&#x2002;" horiz-adv-x="872" />
<glyph unicode="&#x2003;" horiz-adv-x="1745" />
<glyph unicode="&#x2004;" horiz-adv-x="581" />
<glyph unicode="&#x2005;" horiz-adv-x="436" />
<glyph unicode="&#x2006;" horiz-adv-x="290" />
<glyph unicode="&#x2007;" horiz-adv-x="290" />
<glyph unicode="&#x2008;" horiz-adv-x="218" />
<glyph unicode="&#x2009;" horiz-adv-x="349" />
<glyph unicode="&#x200a;" horiz-adv-x="96" />
<glyph unicode="&#x2010;" horiz-adv-x="782" d="M113 444v164h557v-164h-557z" />
<glyph unicode="&#x2011;" horiz-adv-x="782" d="M113 444v164h557v-164h-557z" />
<glyph unicode="&#x2012;" horiz-adv-x="782" d="M113 444v164h557v-164h-557z" />
<glyph unicode="&#x2013;" horiz-adv-x="1159" d="M113 444v164h934v-164h-934z" />
<glyph unicode="&#x2014;" horiz-adv-x="1779" d="M113 444v164h1554v-164h-1554z" />
<glyph unicode="&#x202f;" horiz-adv-x="349" />
<glyph unicode="&#x205f;" horiz-adv-x="436" />
<glyph unicode="&#x25fc;" horiz-adv-x="1024" d="M0 0v1024h1024v-1024h-1024z" />
</font>
</defs>
</svg>
