<?xml version="1.0" standalone="no"?>
<!DOCTYPE svg PUBLIC "-//W3C//DTD SVG 1.1//EN" "http://www.w3.org/Graphics/SVG/1.1/DTD/svg11.dtd" >
<svg xmlns="http://www.w3.org/2000/svg" xmlns:xlink="http://www.w3.org/1999/xlink" version="1.1">
<metadata></metadata>
<defs>
<font id="ostrich_sans_inlineitalic" horiz-adv-x="800" >
<font-face units-per-em="2048" ascent="1638" descent="-410" />
<missing-glyph horiz-adv-x="493" />
<glyph horiz-adv-x="0" />
<glyph horiz-adv-x="682" />
<glyph horiz-adv-x="0" />
<glyph horiz-adv-x="0" />
<glyph unicode="&#xd;" horiz-adv-x="507" />
<glyph unicode=" "  horiz-adv-x="493" />
<glyph unicode="&#x09;" horiz-adv-x="493" />
<glyph unicode="&#xa0;" horiz-adv-x="493" />
<glyph unicode="!" horiz-adv-x="266" d="M-4 2l41 172h151l-43 -172h-149zM51 233l287 1149h151l-286 -1149h-152zM63 57h37l17 62h-37zM123 289h37l258 1036h-37z" />
<glyph unicode="&#x22;" horiz-adv-x="411" d="M276 1122l66 258h152l-66 -258h-152zM348 1180h37l37 145h-37zM473 1122l66 258h149l-65 -258h-150zM543 1180h37l36 145h-36z" />
<glyph unicode="#" horiz-adv-x="1150" d="M59 432l39 152h291l90 211h-270l39 151h299l196 434h152l-197 -434h181l77 172q13 30 55 126t60 136h154l-193 -434h221l-39 -151h-251q-4 -8 -29 -70q-9 -20 -18.5 -40t-14 -29.5t-12 -27.5t-17.5 -44h232l-39 -152h-262q-22 -50 -92 -207t-99 -225h-153l192 432h-180 l-197 -432h-147l190 432h-258zM131 489h268l-192 -432h35l196 432h295l-192 -432h37l190 432h254l10 37h-241q27 65 80.5 187t60.5 139h242l10 37h-234l193 436h-37q-27 -61 -94.5 -209t-100.5 -227h-295l195 436h-37l-194 -436h-291l-10 -37h282l-141 -326h-279zM457 526 l143 326h293l-141 -326h-295zM539 584h180l92 211h-180z" />
<glyph unicode="$" horiz-adv-x="696" d="M162 442l22 84h148q-52 -193 -15 -247l95 374q-70 70 -101 148t-6 178q22 90 95 172t165 117l29 114h151l-26 -104q59 -10 92 -42.5t40 -83.5t1.5 -102t-21.5 -114l-16 -70h-151q15 62 22.5 99.5t7.5 82t-16 62.5l-96 -385q160 -156 120 -315q-26 -108 -99 -193.5 t-177 -110.5l-25 -106h-151l26 111q-184 53 -114 331zM202 342q-2 -46 9.5 -87t45 -67t87.5 -32l-25 -99h39l25 99q97 6 167 80t95 174q22 84 -16 152.5t-111 133.5l123 492q158 -2 94 -264h37l2 12q11 44 16 82t1.5 77t-18 67t-45.5 46t-77 19l25 98h-39l-25 -100 q-88 -15 -158.5 -87t-91.5 -159q-22 -89 11 -158.5t104 -138.5l-123 -487q-48 3 -75 30.5t-32 71.5t-1 86t16 88h-37l-8 -29q-13 -54 -15 -100zM393 195l115 456q15 -15 25.5 -26.5t24 -29t22.5 -32t18 -33.5t13 -37t4 -39t-5 -42q-52 -198 -217 -217zM399 977q20 72 76 132 t127 77l-115 -459q-118 126 -88 250zM457 977q-15 -64 8 -111l55 219q-48 -51 -63 -108zM469 276q60 44 84 136q11 51 -23 110z" />
<glyph unicode="%" horiz-adv-x="960" d="M66 0l895 1380h159l-897 -1380h-157zM162 57h37l825 1268h-39zM213 907l41 164q23 91 95 157t163 66q92 0 131 -65.5t16 -157.5l-41 -164q-23 -92 -94.5 -156.5t-163.5 -64.5t-131 65t-16 156zM270 907q-18 -67 11 -115.5t94 -48.5q66 0 117 47.5t69 116.5l41 164 q18 69 -9.5 117.5t-94.5 48.5q-65 0 -118 -49.5t-69 -116.5zM307 907l41 164q13 54 50 90.5t89 36.5q53 0 72 -35.5t6 -91.5l-41 -164q-13 -54 -50.5 -91.5t-90.5 -37.5q-51 0 -70 38t-6 91zM364 857q8 -21 33 -21t43.5 20t26.5 51l41 164q8 31 -1 50.5t-34 19.5t-43 -20 t-24 -50l-41 -164q-9 -29 -1 -50zM535 307l40 166q23 90 93.5 153.5t162.5 63.5q93 0 131 -63t15 -154l-41 -166q-23 -91 -93.5 -157t-162.5 -66q-91 0 -129.5 66.5t-15.5 156.5zM592 307q-18 -68 9 -117t93 -49t116.5 48.5t68.5 117.5l41 166q18 67 -9 113.5t-94 46.5 q-66 0 -116 -46t-68 -114zM627 307l41 166q13 53 51 90t90 37q51 0 71 -38t7 -89l-41 -166q-13 -53 -52.5 -91t-91.5 -38q-51 0 -69.5 37t-5.5 92zM683.5 257q8.5 -21 33.5 -21t44 20t27 51l41 166q7 29 -1 49.5t-33 20.5q-24 0 -43 -20.5t-27 -49.5l-41 -166 q-9 -29 -0.5 -50z" />
<glyph unicode="&#x26;" horiz-adv-x="913" d="M76 354q13 55 47 108t85.5 100.5t96 82t103.5 74.5q-80 218 -33 403q29 113 113 185.5t198 72.5q56 0 94 -17t55.5 -44t22 -67t-0.5 -79t-17 -88q-27 -107 -92.5 -210.5t-155.5 -186.5q22 -60 50.5 -133t51.5 -137q35 82 82 270h152q-35 -144 -73 -254t-93 -192l4 -17 l72 -225h-164l-41 109q-136 -109 -309 -109q-149 0 -217.5 103t-30.5 251zM133 354q-32 -125 24 -211t179 -86q185 0 332 150l49 -150h39l-47 140h2l-13 45q41 55 73.5 129t48 124t38.5 138h-37q-43 -163 -72 -230q-28 -65 -67 -122l-158 417q97 75 164.5 176t95.5 211 q13 63 16.5 116t-28 88.5t-100.5 35.5q-88 0 -154 -57t-88 -146q-45 -177 47 -417q-60 -39 -104 -71.5t-99.5 -80t-92 -98.5t-48.5 -101zM170 356q10 41 46 89t85 91t95.5 77.5t90.5 60.5l168 -432q-127 -148 -309 -148q-106 0 -154.5 78t-21.5 184zM227 356 q-21 -83 15.5 -144.5t117.5 -61.5q131 0 228 94l-135 348q-82 -57 -148 -121.5t-78 -114.5zM469 1122q19 72 71 117t122 45q29 0 49.5 -7.5t30.5 -22t15.5 -32t4 -42t-5.5 -46t-11 -49.5q-51 -204 -233 -354q-88 208 -43 391zM524 1122q-36 -139 17 -297q109 109 149 260 q7 32 9.5 54t0.5 44.5t-15.5 34t-37.5 11.5q-44 0 -77.5 -29.5t-45.5 -77.5z" />
<glyph unicode="'" horiz-adv-x="206" d="M274 1122l66 258h152l-66 -258h-152zM346 1180h37l37 145h-37z" />
<glyph unicode="(" horiz-adv-x="380" d="M121.5 342.5q3.5 101.5 15.5 185t33 166.5q20 83 51.5 169t81.5 188.5t125 198t164 161.5l37 -143q-62 -46 -117 -120.5t-93.5 -158t-64.5 -156t-43 -139.5q-98 -401 31 -604l-127 -102q-51 65 -74 159t-19.5 195.5zM219 694q-105 -417 17 -626l32 26q-107 193 -4 600 q38 152 116 320t181 266l-10 39q-228 -211 -332 -625z" />
<glyph unicode=")" horiz-adv-x="364" d="M12 90q237 206 334 604q17 66 27 139t13 156.5t-14.5 158t-56.5 120.5l107 143q57 -66 85 -161t26 -198.5t-13.5 -188.5t-32.5 -169q-21 -82 -50.5 -166.5t-77 -185.5t-117.5 -195t-152 -159zM90 94l21 -26q221 207 327 626q103 412 -20 625l-31 -39q38 -68 46 -180.5 t-4.5 -211.5t-35.5 -194q-104 -413 -303 -600z" />
<glyph unicode="*" horiz-adv-x="645" d="M256 913l160 144q-2 1 -29 12l-115 47l84 139l150 -61l45 178h149l-45 -180l185 63l12 -143l-174 -57l29 -43l59 -92l-139 -109l-101 164l-176 -158zM338 920l24 -25l187 168l102 -170l39 29q-89 135 -102 157l203 66l-3 39l-208 -70l51 203h-39l-51 -203l-168 70 l-23 -35q28 -11 83.5 -34.5t82.5 -35.5z" />
<glyph unicode="+" horiz-adv-x="708" d="M160 610l37 152h221l59 239h152l-60 -239h224l-37 -152h-224l-59 -239h-151l59 239h-221zM231 668h222l-62 -242h37l61 242h226l8 37h-225l61 241h-37l-61 -241h-221z" />
<glyph unicode="," horiz-adv-x="202" d="M-113 -121l152 252h168l-168 -252h-152zM-16 -63h30l97 139h-45z" />
<glyph unicode="-" horiz-adv-x="653" d="M162 610l37 150h555l-37 -150h-555zM233 666h443l8 36h-442z" />
<glyph unicode="." horiz-adv-x="260" d="M8 0l37 156h139l-37 -156h-139zM70 57h39l12 43h-39z" />
<glyph unicode="/" horiz-adv-x="794" d="M6 0l895 1380h162l-897 -1380h-160zM102 57h39l826 1268h-41z" />
<glyph unicode="0" horiz-adv-x="724" d="M70.5 235q1.5 51 15.5 107l174 698q40 156 140 253.5t255 97.5q76 0 128.5 -29t74.5 -77.5t26 -112t-16 -132.5l-174 -698q-25 -97 -74.5 -174t-132 -127.5t-184.5 -50.5q-62 0 -108.5 19t-73 52t-39.5 78t-11.5 96zM132.5 197.5q6.5 -65.5 54.5 -108t130 -42.5 q122 0 205 84t115 211l174 698q32 125 -9 209t-161 84q-127 0 -209 -81t-115 -212l-174 -698q-17 -79 -10.5 -144.5zM169 264.5q1 48.5 15 104.5l162 649q15 57 37.5 104.5t56.5 87.5t83 63t108 23t95.5 -23.5t48 -65t9.5 -88.5t-16 -103l-162 -649q-14 -57 -35.5 -104.5 t-54.5 -89.5t-81 -65.5t-107 -23.5t-96.5 24t-50.5 66t-12 90.5zM229 259.5q-1 -50.5 27.5 -84.5t85.5 -34q149 0 207 226l162 649q12 45 14 82.5t-6 70.5t-34 51.5t-69 18.5q-84 0 -136 -62t-77 -159l-161 -649q-12 -59 -13 -109.5z" />
<glyph unicode="1" horiz-adv-x="438" d="M188 0l275 1102l-135 -125l-76 98l106 109l201 196h123l-344 -1380h-150zM256 57h39l317 1268h-41l-243 -244l16 -22l215 207z" />
<glyph unicode="2" horiz-adv-x="692" d="M10 0q20 82 46.5 155t51 127t59 106t60 85.5t65.5 74.5t63.5 62t66.5 58q54 47 84.5 76.5t71 77.5t67 103t43.5 122q10 49 10.5 92t-24.5 72.5t-74 29.5q-134 0 -209 -297h-145q15 68 35.5 127.5t53.5 120.5t74 104t100 70t128 27q78 0 128.5 -29t69.5 -80t19 -111.5 t-18 -130.5q-14 -58 -34 -109t-48.5 -96t-52 -78t-64 -73t-63.5 -62t-70 -63q-60 -53 -91 -82.5t-78.5 -83t-79.5 -113.5t-56 -132h415l-36 -150h-568zM78 57h454l11 35h-416q26 102 70.5 187.5t96 144.5t108.5 112t114 103.5t107 105.5t91.5 130.5t63.5 166.5 q15 59 16 109.5t-13.5 93t-54.5 66.5t-103 24q-68 0 -123 -29.5t-91 -80t-59 -105.5t-37 -119h37q15 58 32.5 103t48 93t77 74.5t106.5 26.5q53 0 86.5 -21.5t45 -58.5t10.5 -79.5t-13 -91.5q-22 -90 -63.5 -163.5t-91 -125.5t-106 -100.5t-115 -103.5t-111.5 -119 t-100.5 -161t-77.5 -217z" />
<glyph unicode="3" horiz-adv-x="663" d="M81 177.5q-3 37.5 2 87t13 91.5t21 95h145q-10 -49 -16 -85t-8.5 -81.5t5 -74.5t28 -49t55.5 -20q127 0 190 238q26 108 -17.5 167.5t-170.5 65.5l37 144q125 10 202 75.5t103 169.5q11 42 15 79.5t0.5 75.5t-25 60.5t-60.5 22.5q-41 0 -77 -29t-63.5 -81.5t-44.5 -97.5 t-34 -103h-148q18 65 40.5 123t59 122.5t78.5 110.5t101 76.5t125 30.5q80 0 129 -36t63.5 -96.5t12 -124t-20.5 -133.5q-50 -204 -192 -311q47 -53 55 -140.5t-16 -170.5q-100 -389 -381 -389q-53 0 -92 14.5t-62.5 38t-36 60.5t-15.5 74.5zM132.5 231.5q-2.5 -41.5 6 -73 t26 -57.5t52.5 -40t84 -14q55 0 101 20t78 51t58 76.5t42 89t30 95.5q66 260 -102 307q67 18 122 71.5t86 114.5t48 129q12 47 17 90.5t0.5 88.5t-20.5 78t-51 54t-87 21q-65 0 -120.5 -33t-93 -88.5t-62.5 -110.5t-42 -118h37q13 45 26.5 82t38 82.5t52 76t68 51.5t87.5 21 q55 0 87 -28t39 -75t2.5 -93.5t-17.5 -98.5q-31 -127 -112 -208t-205 -91l-9 -34q126 -7 165 -81t7 -208q-77 -295 -260 -295q-41 0 -70 13t-43 38t-20.5 53t-3 67t8.5 69.5t14 70.5h-37q-12 -46 -18.5 -84t-9 -79.5z" />
<glyph unicode="4" horiz-adv-x="704" d="M115 451l28 114l680 815h127l-344 -1380h-149l110 451h-452zM186 508h451l-113 -451h37l318 1268h-37l-645 -776zM238 549l585 700l-176 -700h-409zM350 606h256l109 436z" />
<glyph unicode="5" horiz-adv-x="675" d="M71.5 246q5.5 50 20.5 108l25 101h147q-8 -30 -13.5 -53.5t-12 -54t-8 -53.5t-2 -48.5t5 -43.5t15.5 -33t27 -22.5t41 -7.5q72 0 120.5 64.5t70.5 152.5l39 160q12 46 16.5 82t0 71.5t-28 54.5t-66.5 19q-50 0 -103 -54.5t-92 -131.5h-133l207 823h529l-37 -147h-381 l-94 -377q70 37 141 37q287 0 194 -363l-45 -178q-13 -54 -34.5 -104t-55 -97.5t-74 -82.5t-95 -56.5t-115.5 -21.5q-66 0 -111 21t-67.5 54.5t-29.5 82t-1.5 98.5zM147 354q-77 -307 148 -307q61 0 114 27t90 72t62 97t39 109l45 178q77 308 -153 308q-56 0 -116 -31.5 t-100 -81.5l140 563h379l10 37h-416l-178 -713h35q37 77 101.5 132t135.5 55q60 0 94 -24t41.5 -68t3 -88.5t-19.5 -102.5l-39 -160q-13 -50 -33.5 -95.5t-51.5 -87t-76 -66.5t-99 -25q-38 0 -65 10.5t-42.5 27.5t-23 43.5t-8 52t4.5 60.5t11 61t15 62h-37z" />
<glyph unicode="6" horiz-adv-x="679" d="M65.5 189.5q-2.5 59.5 16.5 127.5l158 633q15 61 35 116t54.5 117t77 106t104.5 73t134 29q75 0 123 -27t66.5 -74.5t18.5 -104t-17 -124.5l-27 -103h-152q8 29 13 50t11 49t7.5 48.5t1.5 43t-5 38t-14 28.5t-25 19.5t-38 6.5q-36 0 -69 -20t-55.5 -50t-42.5 -71.5 t-32 -76t-22 -73.5l-20 -80q76 39 147 39q284 0 191 -360l-48 -189q-16 -65 -47 -127.5t-77 -118.5t-111 -90t-139 -34q-75 0 -125 25.5t-70 70t-22.5 104zM125 180q5 -60 48.5 -96.5t123.5 -36.5q59 0 111.5 29t90 76t63.5 100t40 108l47 189q77 305 -149 305 q-60 0 -122 -34.5t-99 -88.5l53 219q14 58 35.5 111.5t56 110.5t86 91.5t113.5 34.5q42 0 70 -11t41 -34t18.5 -47t1 -60.5t-10 -63.5t-16.5 -66h41l12 45q14 57 14.5 103.5t-14 85.5t-52.5 61t-97 22q-58 0 -108.5 -25t-85.5 -63t-64.5 -91.5t-46.5 -101.5t-31 -102 l-158 -633q-17 -77 -12 -137zM163.5 236.5q0.5 41.5 12.5 91.5l62 241q24 98 92.5 173t161.5 75q46 0 76.5 -16t44 -40.5t16 -61t-2.5 -71.5t-16 -79l-43 -178q-13 -49 -34 -96t-52.5 -91.5t-76.5 -72t-97 -27.5t-85.5 20t-46 55.5t-12 77zM221.5 236.5 q0.5 -41.5 26.5 -68.5t74 -27t89 39t64 87.5t37 103.5l43 178q11 44 15 78t-1 66.5t-28.5 50.5t-63.5 18q-65 0 -115 -58.5t-69 -134.5l-62 -241q-10 -50 -9.5 -91.5z" />
<glyph unicode="7" horiz-adv-x="567" d="M-41 0l686 1231h-344l39 149h518l-39 -149l-702 -1231h-158zM49 57h37l696 1229l11 39h-412l-10 -39h366v-4z" />
<glyph unicode="8" horiz-adv-x="720" d="M68.5 256q4.5 54 19.5 115q21 87 67.5 172.5t116.5 142.5q-29 40 -36 99.5t0 106.5t24 116q96 383 389 383q67 0 114 -22.5t70.5 -58.5t31.5 -87t3 -103.5t-20 -111.5q-55 -225 -168 -320q82 -100 27 -317q-18 -74 -52.5 -140t-84 -121.5t-120 -88.5t-151.5 -33 q-69 0 -117 21.5t-73.5 57t-35 85.5t-5 104zM124.5 249q-1.5 -56 14.5 -103.5t60 -75t114 -27.5q66 0 123.5 28.5t98.5 76t69.5 104t44.5 119.5q62 254 -69 315q49 20 86.5 55.5t62 84.5t37.5 88t27 94q16 64 18 118t-11.5 102.5t-55.5 76.5t-109 28q-237 0 -320 -325 q-17 -72 -23 -124t9.5 -109.5t60.5 -88.5q-84 -41 -139 -128.5t-80 -186.5q-17 -66 -18.5 -122zM163.5 283.5q3.5 39.5 14.5 83.5q14 56 37.5 106t58 96t85.5 73.5t110 27.5q217 0 141 -303q-19 -74 -54 -136t-96.5 -106.5t-137.5 -44.5q-48 0 -81.5 16.5t-50.5 44 t-23.5 65.5t-3 77.5zM223 258q-1 -51 27.5 -86t85.5 -35q82 0 138 67.5t79 162.5q64 245 -98 245q-44 0 -81.5 -22t-64 -59.5t-44 -78t-29.5 -85.5q-12 -58 -13 -109zM350 1001q76 295 275 295q48 0 80.5 -18t47 -46.5t18 -68.5t-2 -79t-16.5 -83q-12 -48 -25 -86t-36 -79.5 t-51 -69.5t-70 -46t-93 -18q-199 0 -127 299zM406 1001q-58 -241 86 -241q45 0 80.5 20.5t59 58t37.5 75t27 87.5q12 45 15.5 84t-2 75.5t-31 57.5t-68.5 21q-141 0 -204 -238z" />
<glyph unicode="9" horiz-adv-x="671" d="M64.5 194.5q0.5 56.5 17.5 124.5l27 103h149q-8 -29 -13 -50t-11 -49t-7.5 -48.5t-1.5 -43t5 -38t14 -28.5t25 -19.5t38 -6.5q36 0 69 20t55.5 50t42.5 71.5t32 76t22 73.5l19 78q-72 -37 -146 -37q-67 0 -112 20.5t-67 53.5t-28.5 81.5t-1 97t20.5 107.5l47 189 q16 65 47 127.5t76.5 119t110.5 90.5t139 34q75 0 125 -25.5t71 -70t23.5 -104.5t-16.5 -128l-158 -633q-16 -63 -36 -118t-55 -116.5t-77 -105t-104.5 -72t-135.5 -28.5q-75 0 -122.5 26.5t-65.5 74t-17.5 104zM122.5 215.5q-0.5 -46.5 13.5 -85.5t52 -61t97 -22t110 25 t86 62.5t64.5 91t46.5 102t31 102.5l157 633q16 56 14 105.5t-18.5 86t-57 57.5t-100.5 21q-59 0 -111 -29t-89.5 -76t-63 -100t-39.5 -108l-47 -189q-77 -305 148 -305q60 0 121.5 34t101.5 89l-55 -219q-14 -58 -35.5 -111.5t-56 -110.5t-86 -91.5t-113.5 -34.5 q-36 0 -61.5 9.5t-40.5 24t-22.5 38t-8.5 45.5t3.5 53.5t10 55.5t14.5 57h-38l-13 -46q-14 -57 -14.5 -103.5zM287 681.5q-3 36.5 2 71.5t16 78l43 179q13 49 34 95.5t52.5 91.5t76.5 72t97 27t85.5 -20t46 -55t12 -76.5t-12.5 -91.5l-61 -242q-24 -98 -92.5 -173 t-161.5 -75q-46 0 -76.5 16t-44 41t-16.5 61.5zM345 753q-4 -34 1 -66.5t28.5 -50.5t63.5 -18q65 0 115.5 58.5t69.5 134.5l61 242q10 50 9.5 91t-26 68t-73.5 27t-89 -39t-64.5 -87.5t-37.5 -102.5l-43 -179q-11 -44 -15 -78z" />
<glyph unicode=":" horiz-adv-x="272" d="M72 272l49 199h151l-49 -199h-151zM143 330h37l21 84h-37zM213 840l47 194h152l-47 -194h-152zM283 895h36l23 84h-37z" />
<glyph unicode=";" horiz-adv-x="239" d="M-14 236l153 249h152l-172 -249h-133zM70 291h34l95 137h-43zM219 840l47 194h158l-47 -194h-158zM287 895h47l22 84h-47z" />
<glyph unicode="&#x3c;" horiz-adv-x="526" d="M195 690l448 690h160l-447 -690l103 -690h-160zM254 690l94 -633h41l-94 633l412 635h-41z" />
<glyph unicode="=" horiz-adv-x="679" d="M119 442l37 148h555l-37 -148h-555zM190 498h443l10 37h-442zM219 844l37 149h555l-37 -149h-555zM291 901h442l8 35h-442z" />
<glyph unicode="&#x3e;" horiz-adv-x="526" d="M2 0l451 690q-50 314 -107 690h164l100 -690l-444 -690h-164zM98 57h41l412 633l-94 635h-41l98 -635z" />
<glyph unicode="?" horiz-adv-x="708" d="M219 0l41 172h150l-41 -172h-150zM221 907q17 69 41 133.5t62.5 130t84.5 113.5t109.5 78.5t134.5 30.5q82 0 136.5 -29.5t75.5 -79.5t23.5 -116t-18.5 -140q-30 -114 -97.5 -208.5t-172.5 -194.5q-66 -66 -94.5 -126t-54.5 -165l-21 -80h-149l22 88q18 74 39.5 132 t40 94.5t45 70t44 50.5t48 45.5t47.5 45.5v-2q40 40 62 65.5t47.5 72.5t40.5 104q13 61 14.5 110t-28 80t-89.5 31q-46 0 -87 -31.5t-70.5 -83.5t-50 -106t-35.5 -113h-150zM287 57h39l16 60h-39zM293 963h35q11 46 27.5 89.5t43 89t58.5 79.5t76.5 55.5t95.5 21.5 q215 0 145 -278q-16 -62 -42 -112t-56.5 -84.5t-65 -67t-70 -69t-68 -80.5t-63 -112t-51.5 -153l-8 -31h39q13 51 22 80t29 78.5t51 96t74 93.5q107 102 163.5 180t84.5 189q16 65 16 118.5t-17.5 97t-61.5 67.5t-111 24q-72 0 -133 -34t-102 -91t-67.5 -118t-43.5 -129z " />
<glyph unicode="@" horiz-adv-x="1366" d="M176 376.5q-23 110.5 12 250.5q36 147 118.5 277.5t195 226t255 151t292.5 55.5q241 0 342.5 -147.5t40.5 -388.5q-26 -106 -78.5 -202.5t-126.5 -176t-176 -127t-215 -47.5q-62 0 -86 49q-61 -25 -125 -25q-129 0 -173.5 82t-13.5 211q21 83 70 174t117.5 172.5 t160.5 134t185 52.5q50 0 84 -27q4 6 4 8h155l-86 -176q-214 -428 -231 -500q-4 -6 -14 -6q75 1 143 38.5t117.5 97.5t85 130t53.5 144q43 174 -30 277.5t-246 103.5q-151 0 -291.5 -75.5t-238 -202t-134.5 -277.5q-27 -106 -10.5 -190.5t67.5 -143t133 -90t185 -31.5 q198 0 428 133l133 -75q-343 -205 -598 -205q-131 0 -237.5 40.5t-175 117.5t-91.5 187.5zM235.5 400q20.5 -100 82 -170t158.5 -107t218 -37q235 0 473 141l-34 19q-216 -123 -431 -123q-115 0 -206 35t-147.5 100.5t-75 160t11.5 214.5q30 124 101.5 236.5t168 195 t218.5 131.5t247 49q199 0 283 -119t34 -319q-21 -86 -62.5 -166t-100.5 -149t-140 -110.5t-172 -41.5q-36 0 -20 63q10 41 64 158t139 289.5t85 173.5h-40l-39 -80q2 40 -25.5 69t-69.5 29q-65 0 -129.5 -31t-116.5 -81.5t-96.5 -113.5t-74.5 -127.5t-45 -123.5 q-14 -66 -7.5 -118t45.5 -84.5t107 -32.5q98 0 160 57q-7 -32 6 -57t45 -25q99 0 188.5 42.5t155 113.5t112.5 158t70 182q53 216 -37 347.5t-305 131.5q-137 0 -267.5 -51.5t-233 -139.5t-178.5 -207.5t-109 -254.5q-31 -127 -10.5 -227zM527.5 474q-1.5 44 9.5 93 q13 51 51 123.5t89 143.5t115.5 120.5t120.5 49.5q125 0 91 -146q-5 -20 -13.5 -41t-23 -51t-19.5 -41t-22 -52t-25.5 -60t-28 -57t-34 -59t-38 -49t-46.5 -42.5t-53 -25.5t-62 -11q-53 0 -81.5 30.5t-30 74.5zM589.5 470q14.5 -44 63.5 -44q31 0 60.5 17.5t49.5 40t43 63 t35 66.5t31 71l27 55l12 27q4 9 12.5 27t14.5 33.5t10 31.5q21 90 -49 90q-59 0 -128.5 -73t-116.5 -160t-62 -148q-17 -53 -2.5 -97z" />
<glyph unicode="A" horiz-adv-x="890" d="M20 0l660 1380h119l-31 -1380h-154l13 395h-262l-191 -395h-154zM102 57h39l187 394h356l-10 -394h37l28 1268h-28zM346 487l354 744l-14 -744h-340zM432 543h197l10 438z" />
<glyph unicode="B" horiz-adv-x="714" d="M6 0l344 1380h232q188 0 252 -96q36 -55 36 -141q0 -64 -20 -144q-51 -207 -182 -299q71 -62 70 -179q0 -62 -19 -140q-46 -184 -146 -282.5t-280 -98.5h-287zM74 57h231q150 0 233.5 84t123.5 240q14 55 16 103v16q0 40 -8 76q-10 44 -41.5 74.5t-81.5 41.5 q186 65 246 307q18 69 18 124q1 73 -31 119q-54 82 -213 83h-176zM123 94l143 576h172q136 0 178 -74q23 -40 23 -99q0 -51 -16 -116q-35 -140 -107 -213.5t-207 -73.5h-186zM193 150h131q102 0 157 59t84 172q13 54 13 96q0 47 -16 77q-31 58 -138 58h-117zM274 705 l146 583h141q210 0 210 -179q0 -48 -15 -110q-34 -136 -114.5 -215t-211.5 -79h-156zM344 762h100q193 0 254 237q13 50 13 90q1 49 -19 83q-36 62 -143 61h-86z" />
<glyph unicode="C" horiz-adv-x="780" d="M75 250q2 58 19 125l158 633q44 174 155.5 280.5t282.5 106.5q134 1 196 -55q61 -55 60 -161q0 -107 -41 -270h-151q11 43 17.5 72.5t12.5 67.5q5 32 4 56v8q-1 26 -8 53t-22.5 43t-41.5 26t-63 10q-95 0 -159 -66.5t-91 -170.5l-157 -633q-11 -48 -11 -88q-1 -47 15 -84 q30 -68 125 -68q59 0 103.5 24.5t75.5 73.5t51 104.5t40 135.5h152q-18 -72 -35 -126t-43.5 -113.5t-60 -100.5t-78.5 -76t-106 -52t-136 -17q-70 0 -122 19.5t-83 54t-45 82.5q-13 43 -13 93v13zM152 375q-17 -65 -17 -120q0 -69 27 -120q48 -92 190 -92q67 0 122.5 20.5 t94.5 53.5t70 83t50.5 101t35.5 115h-37q-13 -55 -29.5 -100t-44 -90.5t-61.5 -76t-83.5 -50t-109.5 -19.5q-63 0 -105.5 24t-60 65t-20.5 94v16q0 46 14 96l158 633q32 127 115.5 211t206.5 84q50 0 86.5 -12.5t56 -37t29.5 -54.5q10 -29 9 -66q0 -40 -6 -82 q-6 -38 -18 -84h37q23 92 23 162q0 208 -209 208q-143 0 -236.5 -90.5t-130.5 -238.5z" />
<glyph unicode="D" horiz-adv-x="774" d="M8 0l344 1380h295q91 0 151.5 -30.5t85.5 -83.5q24 -52 27 -124v-17q0 -64 -20 -138l-150 -594q-21 -87 -56.5 -156t-88 -123.5t-127 -84t-166.5 -29.5h-295zM78 57h237q150 0 240.5 90.5t128.5 245.5l150 594q18 65 18 121v12q-2 62 -22.5 107t-70.5 71.5t-126 26.5 h-238zM123 92l297 1196h188q71 0 118 -24t65.5 -65.5t20.5 -98.5v-11q0 -52 -17 -112l-142 -574q-37 -143 -120.5 -227t-221.5 -84h-188zM195 150h131q205 0 270 253l141 574q14 62 14 113v17q-3 57 -42 91.5t-113 34.5h-131z" />
<glyph unicode="E" horiz-adv-x="661" d="M6 0l342 1380h553l-37 -147h-405l-119 -471h270l-37 -150h-270l-115 -462h406l-37 -150h-551zM74 57h438l10 35h-403l143 578h270l9 35h-271l146 583h403l10 37h-440z" />
<glyph unicode="F" horiz-adv-x="634" d="M0 0l342 1380h553l-37 -147h-405l-119 -471h272l-37 -150h-272l-152 -612h-145zM68 57h34l154 613h270l9 35h-271l146 583h403l10 37h-440z" />
<glyph unicode="G" d="M80 252q2 57 18 121l158 637q42 169 156.5 277t283.5 108q94 0 151.5 -31.5t78.5 -93.5q17 -50 17 -113q0 -14 -1 -30q-5 -81 -33 -191h-149q17 66 23 116q3 23 3 45q0 26 -4 51q-7 47 -37.5 72t-85.5 25q-99 0 -165 -72t-93 -182l-153 -618q-12 -51 -12 -94q0 -13 2 -25 q4 -53 40.5 -86t100.5 -33q91 0 157 69t91 169l59 239h-221l37 150h370l-96 -389q-41 -166 -154.5 -275.5t-279.5 -109.5q-69 0 -121 20t-82.5 55t-45.5 83q-13 43 -13 93v13zM156 373q-15 -61 -15 -113q0 -71 27 -124q49 -93 188 -93t234 94t131 236l82 332h-260l-8 -35 h223l-74 -297q-32 -124 -116 -208.5t-203 -84.5q-62 0 -104.5 23.5t-60.5 63.5t-21 93v17q0 46 14 96l153 618q34 135 117 223.5t211 88.5q65 0 105.5 -26.5t54.5 -72.5q13 -41 13 -88v-13q-2 -54 -18 -118h37q20 77 20 140t-19.5 111t-66.5 74.5t-118 26.5 q-140 0 -236.5 -92t-132.5 -235z" />
<glyph unicode="H" horiz-adv-x="712" d="M6 0l344 1380h150l-156 -620h322l155 620h150l-344 -1380h-150l152 610h-322l-151 -610h-150zM76 57h35l153 611h434l-153 -611h39l317 1268h-39l-155 -623h-435l156 623h-35z" />
<glyph unicode="I" horiz-adv-x="294" d="M14 0l344 1380h150l-344 -1380h-150zM82 57h39l317 1268h-39z" />
<glyph unicode="J" horiz-adv-x="727" d="M100 463h150q-10 -39 -16 -66.5t-12 -64.5t-6.5 -62.5t5 -53t18 -44t35 -27t54.5 -10.5q47 0 85.5 21.5t65 58.5t43.5 77.5t29 88.5l252 1008h151l-256 -1027q-20 -79 -52 -143.5t-80.5 -118t-118.5 -83t-156 -29.5q-120 0 -176 54q-55 54 -55 157q0 105 40 264zM132 133 q39 -90 173 -90q136 0 218 88.5t118 230.5l242 969h-37l-238 -950q-15 -59 -37.5 -108.5t-57 -95t-86 -71.5t-114.5 -26q-54 0 -89.5 19t-51 49t-17.5 75v21q0 34 5 66q6 42 20 96h-39q-26 -101 -26 -174q0 -59 17 -99z" />
<glyph unicode="K" horiz-adv-x="684" d="M8 0l344 1382h150l-137 -546l438 546h178l-526 -645l211 -737h-174l-166 588l-33 -39l-135 -549h-150zM76 57h39l127 506l116 135l181 -641h43l-189 682l473 586h-45l-563 -696l174 696h-39z" />
<glyph unicode="L" horiz-adv-x="575" d="M-6 0l344 1380h147l-307 -1230h314l-37 -150h-461zM61 57h351l10 35h-313l307 1233h-37z" />
<glyph unicode="M" horiz-adv-x="874" d="M0 0l344 1380h133l6 -999l508 999h133l-344 -1380h-149l176 713l-354 -713h-121l-6 702l-174 -702h-152zM70 57h36l275 1094l6 -1094h35l551 1096l-275 -1096h39l318 1268h-35l-594 -1173l-6 1173h-33z" />
<glyph unicode="N" horiz-adv-x="788" d="M6 0l344 1380h125l139 -913l230 913h149l-344 -1380h-125q-5 31 -141 913l-227 -913h-150zM74 57h39l288 1151q29 -186 85.5 -570t86.5 -581h31l318 1268h-35l-287 -1151l-176 1151h-33z" />
<glyph unicode="O" d="M80 223q-1 12 0 24q0 60 18 128l158 633q43 168 156.5 277.5t279.5 109.5q69 0 120.5 -20t81.5 -55q32 -36 46 -86q13 -44 12 -92v-14q-2 -56 -18 -120l-158 -633q-44 -177 -152.5 -282t-281.5 -105q-87 0 -146 30t-85.5 82t-30.5 123zM140 246q4 -60 24.5 -105.5 t70 -71.5t121.5 -26q144 0 234.5 90.5t128.5 241.5l158 633q16 58 16 111v17q-3 60 -23.5 105.5t-69 72.5t-120.5 27q-139 0 -235 -95t-132 -238l-157 -633q-16 -58 -16 -110q-1 -10 0 -19zM197 391l149 598q21 83 60.5 150.5t108.5 114t155 46.5q67 0 110 -26 q42 -24 58 -70q15 -44 15 -96q-1 -2 -1 -3q0 -53 -16 -118l-152 -602q-34 -136 -112 -219.5t-207 -83.5q-67 0 -109 25q-44 25 -60 69q-16 43 -16 94q0 55 17 121zM238 292q0 -42 12 -76q12 -36 45 -57.5t84 -21.5q186 0 248 248l151 602q12 51 14 95q0 5 1 10q-1 38 -11 72 q-12 38 -43.5 58.5t-83.5 20.5q-97 0 -161.5 -73t-92.5 -181l-149 -598q-14 -54 -14 -99z" />
<glyph unicode="P" horiz-adv-x="702" d="M6 0l344 1380h277q179 0 237 -102q33 -57 32 -139q0 -63 -19 -140q-19 -74 -45.5 -132t-57 -99t-72 -70t-82.5 -46t-95.5 -26.5t-103 -12.5t-114.5 -3l-151 -610h-150zM76 57h35l153 611q184 0 251 10q148 24 223 127q53 72 83 194q16 61 16 114v17q-3 60 -25.5 103.5 t-73 67.5t-126.5 24h-219zM272 705l146 581h164q144 0 190 -72q26 -41 26 -104q0 -49 -16 -111q-36 -147 -121.5 -220.5t-232.5 -73.5h-156zM344 762h98q118 0 186.5 59t98.5 178q13 51 13 90q0 51 -22 84q-38 58 -151 58h-106z" />
<glyph unicode="Q" horiz-adv-x="804" d="M78 232q-2 14 -2 29q0 58 18 120l158 633q42 167 155 274t277 107q85 0 144 -30t85.5 -81.5t31.5 -121.5q1 -12 1 -26q0 -58 -18 -122l-158 -633q-45 -178 -121 -264l109 -191h-189l-57 99q-81 -37 -178 -37q-84 0 -142 32.5t-83.5 86.5t-30.5 125zM136 254 q4 -61 24.5 -108t69 -75t118.5 -28q106 0 197 55l65 -114h45l-80 133q56 48 85 110.5t53 153.5l157 633q15 60 15 112q0 69 -27 120q-49 91 -188 91q-136 0 -230.5 -91t-130.5 -232l-157 -633q-16 -56 -16 -108v-19zM178 283q0 55 15 114l151 607q32 130 113.5 214.5 t204.5 84.5q63 0 105.5 -24t60 -65t20.5 -95v-16q0 -47 -14 -97l-156 -623q-40 -161 -117 -233l-63 102h-43l75 -127q-85 -45 -174 -45q-63 0 -104 28t-57.5 74t-16.5 101zM237 303v-7q0 -41 11 -76q12 -39 43.5 -62t79.5 -23q40 0 71 10l-92 164h191l34 -61q28 57 46 135 l155 623q11 48 11 88q0 47 -15 84q-30 67 -125 67t-158 -68t-88 -173l-151 -607q-12 -49 -13 -94z" />
<glyph unicode="R" horiz-adv-x="708" d="M-14 0l344 1380h295q78 0 130.5 -18.5t80.5 -51.5q26 -32 36 -82q6 -31 6 -64q0 -20 -2 -42q-6 -56 -24 -129q-50 -207 -168 -303q34 -42 38 -114q1 -14 0 -28q0 -58 -15 -112l-109 -436h-149l106 430q11 45 11 78q0 38 -15 60q-28 42 -123 42h-141l-152 -610h-149z M53 57h39l154 611h196q126 0 162 -56q20 -30 20 -80q0 -43 -14 -102l-94 -373h39l96 379q14 59 14 104q0 121 -102 146q52 15 92.5 47t67 77t43 87.5t29.5 95.5q22 95 22 167v6q-1 74 -52 116.5t-155 42.5h-239zM254 705l145 581h193q96 0 142 -38q45 -37 45 -101t-21 -154 q-25 -102 -61 -162.5t-101.5 -93t-167.5 -32.5h-174zM324 762h118q80 0 131 26.5t78.5 74t48.5 130.5q17 71 19 124v6q-1 49 -33 77q-34 30 -108 31h-138z" />
<glyph unicode="S" horiz-adv-x="743" d="M123 471h149q-13 -53 -20 -91q-8 -40 -12 -80q-2 -18 -2 -33q0 -19 3 -35q5 -28 18 -50.5t38.5 -33.5t62.5 -11q88 0 146 51t82 142q5 20 5 41q0 32 -12 66q-20 56 -47.5 93t-70.5 82l2 -2q-101 88 -159 204q-37 74 -36 153q0 44 11 90q36 146 146.5 242t256.5 96 q67 0 114 -15.5t72 -48.5q24 -33 36 -71q9 -28 9 -67q0 -15 -1 -29q-4 -58 -13 -109.5t-27 -124.5h-149q11 47 17.5 79.5t11.5 72.5q3 22 3 40q0 14 -2 26q-4 26 -14.5 50t-34.5 35.5t-59 11.5q-81 0 -139.5 -56t-79.5 -142q-5 -21 -6.5 -40.5t5.5 -42t10.5 -37t20.5 -40 t23 -35.5t30 -38.5t29 -34.5t33 -38v2q28 -32 44.5 -51.5t40.5 -51.5t37 -55.5t27.5 -56.5t19.5 -61.5t4.5 -63.5t-9.5 -71q-42 -166 -146 -255t-267 -89q-126 0 -184 55t-58 161q0 107 41 267zM138 218q1 -82 50.5 -127.5t149.5 -45.5q136 0 223 74t121 213q8 33 8 65v20 q-4 42 -18.5 77.5t-37 71t-50 67t-56.5 64.5t-56.5 63.5t-49.5 65.5t-38 68.5t-20 73.5q-1 10 0 20q0 29 7 59q28 110 105.5 183t185.5 73q48 0 81.5 -13t49.5 -38q15 -26 23 -54q5 -19 6 -44q0 -12 -2 -24q-4 -40 -9.5 -71.5t-15.5 -73.5h34q17 68 24 119q4 31 4 60 q1 19 -1 37q-4 46 -24 75t-60 46t-100 17q-120 0 -212 -80t-122 -202q-9 -37 -9 -74q0 -165 181 -328h-2q71 -71 114 -159q29 -60 29 -116q0 -26 -6 -50q-30 -119 -106 -184.5t-193 -65.5q-49 0 -83.5 14.5t-51.5 41.5q-17 26 -25 58q-7 24 -7 55q1 9 1 17q2 40 7.5 74 t15.5 74h-39q-26 -110 -27 -190q1 -3 1 -6z" />
<glyph unicode="T" horiz-adv-x="710" d="M225 2l307 1231h-229l37 149h608l-37 -149h-229l-307 -1231h-150zM293 57h39l307 1231h229l11 37h-496l-10 -37h227z" />
<glyph unicode="U" horiz-adv-x="792" d="M86 350l256 1032h152l-256 -1022q-10 -43 -10 -79q0 -49 18 -83q32 -62 125 -61q94 0 157.5 61.5t87.5 161.5l256 1022h152l-258 -1032q-41 -165 -154 -263.5t-278 -98.5q-163 0 -226 98q-38 59 -38 144q0 55 16 120zM143 350q-14 -56 -14 -103q0 -70 31 -119 q52 -83 188 -83t231 83t130 222l243 975h-37l-241 -965q-31 -126 -113 -203t-205 -77q-121 0 -164 77q-25 45 -25 106q0 44 13 97l242 965h-37z" />
<glyph unicode="V" horiz-adv-x="806" d="M297 2l22 1380h156l-18 -983l467 983h153l-659 -1380h-121zM354 57h31l608 1268h-39l-561 -1180l23 1180h-39z" />
<glyph unicode="W" horiz-adv-x="1204" d="M287 0l43 1380h149l-26 -917q64 154 195.5 461.5t193.5 455.5h129l-70 -917l426 917h154l-641 -1380h-125l61 860q-365 -856 -366 -860h-123zM344 57h29l487 1137l-84 -1137h31l590 1268h-39l-537 -1157l86 1157h-30l-490 -1157l33 1157h-35z" />
<glyph unicode="X" horiz-adv-x="716" d="M-45 0l438 686q-52 384 -84 694h158l57 -485l303 485h160l-432 -694q24 -188 96 -686h-159l-70 479l-305 -479h-162zM51 57h39l371 576l82 -576h39q-14 105 -43.5 314t-44.5 313l399 641h-39l-369 -590l-71 590h-41q14 -120 80 -641z" />
<glyph unicode="Y" horiz-adv-x="722" d="M248 0l155 629q-82 627 -94 751h160l68 -528q171 267 333 528h160l-475 -751l-156 -629h-151zM317 57h39l146 582l432 686h-39l-397 -635l-82 635h-39q5 -47 86 -686z" />
<glyph unicode="Z" horiz-adv-x="727" d="M-4 0l29 117l731 1114h-426l39 149h602l-29 -114l-731 -1116h461l-37 -150h-639zM63 57h527l10 37h-485v4l774 1180l12 47h-489l-11 -39h451v-2l-776 -1180z" />
<glyph unicode="[" horiz-adv-x="401" d="M25 0l344 1380h311l-37 -147h-162l-270 -1083h162l-37 -150h-311zM94 57h197l10 35h-162l297 1196h162l10 37h-196z" />
<glyph unicode="\" horiz-adv-x="819" d="M352 1380h160l209 -1380h-162zM422 1325l188 -1268h41l-190 1268h-39z" />
<glyph unicode="]" horiz-adv-x="401" d="M14 0l37 150h160l270 1083h-159l36 147h310l-344 -1380h-310zM82 57h199l317 1268h-199l-10 -37h160l-297 -1196h-160z" />
<glyph unicode="^" horiz-adv-x="778" d="M260 1108l43 170l399 211l293 -211l-43 -170l-290 215q-351 -189 -402 -215zM344 1210l334 179l244 -179l8 37l-244 174q-55 -28 -166.5 -86.5t-167.5 -87.5z" />
<glyph unicode="_" horiz-adv-x="985" d="M14 -59l37 147h860l-37 -147h-860zM84 -4h750l8 37h-750z" />
<glyph unicode="`" horiz-adv-x="339" d="M289 1382h180l98 -268h-166zM381 1325l63 -156h37l-57 156h-43z" />
<glyph unicode="a" horiz-adv-x="890" d="M20 0l660 1380h119l-31 -1380h-154l13 395h-262l-191 -395h-154zM102 57h39l187 394h356l-10 -394h37l28 1268h-28zM346 487l354 744l-14 -744h-340zM432 543h197l10 438z" />
<glyph unicode="b" horiz-adv-x="714" d="M6 0l344 1380h232q188 0 252 -96q36 -55 36 -141q0 -64 -20 -144q-51 -207 -182 -299q71 -62 70 -179q0 -62 -19 -140q-46 -184 -146 -282.5t-280 -98.5h-287zM74 57h231q150 0 233.5 84t123.5 240q14 55 16 103v16q0 40 -8 76q-10 44 -41.5 74.5t-81.5 41.5 q186 65 246 307q18 69 18 124q1 73 -31 119q-54 82 -213 83h-176zM123 94l143 576h172q136 0 178 -74q23 -40 23 -99q0 -51 -16 -116q-35 -140 -107 -213.5t-207 -73.5h-186zM193 150h131q102 0 157 59t84 172q13 54 13 96q0 47 -16 77q-31 58 -138 58h-117zM274 705 l146 583h141q210 0 210 -179q0 -48 -15 -110q-34 -136 -114.5 -215t-211.5 -79h-156zM344 762h100q193 0 254 237q13 50 13 90q1 49 -19 83q-36 62 -143 61h-86z" />
<glyph unicode="c" horiz-adv-x="780" d="M75 250q2 58 19 125l158 633q44 174 155.5 280.5t282.5 106.5q134 1 196 -55q61 -55 60 -161q0 -107 -41 -270h-151q11 43 17.5 72.5t12.5 67.5q5 32 4 56v8q-1 26 -8 53t-22.5 43t-41.5 26t-63 10q-95 0 -159 -66.5t-91 -170.5l-157 -633q-11 -48 -11 -88q-1 -47 15 -84 q30 -68 125 -68q59 0 103.5 24.5t75.5 73.5t51 104.5t40 135.5h152q-18 -72 -35 -126t-43.5 -113.5t-60 -100.5t-78.5 -76t-106 -52t-136 -17q-70 0 -122 19.5t-83 54t-45 82.5q-13 43 -13 93v13zM152 375q-17 -65 -17 -120q0 -69 27 -120q48 -92 190 -92q67 0 122.5 20.5 t94.5 53.5t70 83t50.5 101t35.5 115h-37q-13 -55 -29.5 -100t-44 -90.5t-61.5 -76t-83.5 -50t-109.5 -19.5q-63 0 -105.5 24t-60 65t-20.5 94v16q0 46 14 96l158 633q32 127 115.5 211t206.5 84q50 0 86.5 -12.5t56 -37t29.5 -54.5q10 -29 9 -66q0 -40 -6 -82 q-6 -38 -18 -84h37q23 92 23 162q0 208 -209 208q-143 0 -236.5 -90.5t-130.5 -238.5z" />
<glyph unicode="d" horiz-adv-x="774" d="M8 0l344 1380h295q91 0 151.5 -30.5t85.5 -83.5q24 -52 27 -124v-17q0 -64 -20 -138l-150 -594q-21 -87 -56.5 -156t-88 -123.5t-127 -84t-166.5 -29.5h-295zM78 57h237q150 0 240.5 90.5t128.5 245.5l150 594q18 65 18 121v12q-2 62 -22.5 107t-70.5 71.5t-126 26.5 h-238zM123 92l297 1196h188q71 0 118 -24t65.5 -65.5t20.5 -98.5v-11q0 -52 -17 -112l-142 -574q-37 -143 -120.5 -227t-221.5 -84h-188zM195 150h131q205 0 270 253l141 574q14 62 14 113v17q-3 57 -42 91.5t-113 34.5h-131z" />
<glyph unicode="e" horiz-adv-x="661" d="M6 0l342 1380h553l-37 -147h-405l-119 -471h270l-37 -150h-270l-115 -462h406l-37 -150h-551zM74 57h438l10 35h-403l143 578h270l9 35h-271l146 583h403l10 37h-440z" />
<glyph unicode="f" horiz-adv-x="634" d="M0 0l342 1380h553l-37 -147h-405l-119 -471h272l-37 -150h-272l-152 -612h-145zM68 57h34l154 613h270l9 35h-271l146 583h403l10 37h-440z" />
<glyph unicode="g" d="M80 252q2 57 18 121l158 637q42 169 156.5 277t283.5 108q94 0 151.5 -31.5t78.5 -93.5q17 -50 17 -113q0 -14 -1 -30q-5 -81 -33 -191h-149q17 66 23 116q3 23 3 45q0 26 -4 51q-7 47 -37.5 72t-85.5 25q-99 0 -165 -72t-93 -182l-153 -618q-12 -51 -12 -94q0 -13 2 -25 q4 -53 40.5 -86t100.5 -33q91 0 157 69t91 169l59 239h-221l37 150h370l-96 -389q-41 -166 -154.5 -275.5t-279.5 -109.5q-69 0 -121 20t-82.5 55t-45.5 83q-13 43 -13 93v13zM156 373q-15 -61 -15 -113q0 -71 27 -124q49 -93 188 -93t234 94t131 236l82 332h-260l-8 -35 h223l-74 -297q-32 -124 -116 -208.5t-203 -84.5q-62 0 -104.5 23.5t-60.5 63.5t-21 93v17q0 46 14 96l153 618q34 135 117 223.5t211 88.5q65 0 105.5 -26.5t54.5 -72.5q13 -41 13 -88v-13q-2 -54 -18 -118h37q20 77 20 140t-19.5 111t-66.5 74.5t-118 26.5 q-140 0 -236.5 -92t-132.5 -235z" />
<glyph unicode="h" horiz-adv-x="712" d="M6 0l344 1380h150l-156 -620h322l155 620h150l-344 -1380h-150l152 610h-322l-151 -610h-150zM76 57h35l153 611h434l-153 -611h39l317 1268h-39l-155 -623h-435l156 623h-35z" />
<glyph unicode="i" horiz-adv-x="294" d="M14 0l344 1380h150l-344 -1380h-150zM82 57h39l317 1268h-39z" />
<glyph unicode="j" horiz-adv-x="727" d="M100 463h150q-10 -39 -16 -66.5t-12 -64.5t-6.5 -62.5t5 -53t18 -44t35 -27t54.5 -10.5q47 0 85.5 21.5t65 58.5t43.5 77.5t29 88.5l252 1008h151l-256 -1027q-20 -79 -52 -143.5t-80.5 -118t-118.5 -83t-156 -29.5q-120 0 -176 54q-55 54 -55 157q0 105 40 264zM132 133 q39 -90 173 -90q136 0 218 88.5t118 230.5l242 969h-37l-238 -950q-15 -59 -37.5 -108.5t-57 -95t-86 -71.5t-114.5 -26q-54 0 -89.5 19t-51 49t-17.5 75v21q0 34 5 66q6 42 20 96h-39q-26 -101 -26 -174q0 -59 17 -99z" />
<glyph unicode="k" horiz-adv-x="690" d="M8 0l344 1382h150l-137 -546l438 546h178l-526 -645l211 -737h-174l-166 588l-33 -39l-135 -549h-150zM76 57h39l127 506l116 135l181 -641h43l-189 682l473 586h-45l-563 -696l174 696h-39z" />
<glyph unicode="l" horiz-adv-x="575" d="M-6 0l344 1380h147l-307 -1230h314l-37 -150h-461zM61 57h351l10 35h-313l307 1233h-37z" />
<glyph unicode="m" horiz-adv-x="874" d="M0 0l344 1380h133l6 -999l508 999h133l-344 -1380h-149l176 713l-354 -713h-121l-6 702l-174 -702h-152zM70 57h36l275 1094l6 -1094h35l551 1096l-275 -1096h39l318 1268h-35l-594 -1173l-6 1173h-33z" />
<glyph unicode="n" horiz-adv-x="788" d="M6 0l344 1380h125l139 -913l230 913h149l-344 -1380h-125q-5 31 -141 913l-227 -913h-150zM74 57h39l288 1151q29 -186 85.5 -570t86.5 -581h31l318 1268h-35l-287 -1151l-176 1151h-33z" />
<glyph unicode="o" d="M80 223q-1 12 0 24q0 60 18 128l158 633q43 168 156.5 277.5t279.5 109.5q69 0 120.5 -20t81.5 -55q32 -36 46 -86q13 -44 12 -92v-14q-2 -56 -18 -120l-158 -633q-44 -177 -152.5 -282t-281.5 -105q-87 0 -146 30t-85.5 82t-30.5 123zM140 246q4 -60 24.5 -105.5 t70 -71.5t121.5 -26q144 0 234.5 90.5t128.5 241.5l158 633q16 58 16 111v17q-3 60 -23.5 105.5t-69 72.5t-120.5 27q-139 0 -235 -95t-132 -238l-157 -633q-16 -58 -16 -110q-1 -10 0 -19zM197 391l149 598q21 83 60.5 150.5t108.5 114t155 46.5q67 0 110 -26 q42 -24 58 -70q15 -44 15 -96q-1 -2 -1 -3q0 -53 -16 -118l-152 -602q-34 -136 -112 -219.5t-207 -83.5q-67 0 -109 25q-44 25 -60 69q-16 43 -16 94q0 55 17 121zM238 292q0 -42 12 -76q12 -36 45 -57.5t84 -21.5q186 0 248 248l151 602q12 51 14 95q0 5 1 10q-1 38 -11 72 q-12 38 -43.5 58.5t-83.5 20.5q-97 0 -161.5 -73t-92.5 -181l-149 -598q-14 -54 -14 -99z" />
<glyph unicode="p" horiz-adv-x="702" d="M6 0l344 1380h277q178 0 237 -102q33 -57 33 -139q0 -63 -20 -140q-19 -74 -45.5 -132t-57 -99t-72 -70t-82.5 -46t-95.5 -26.5t-103 -12.5t-114.5 -3l-151 -610h-150zM76 57h35l153 611q184 0 251 10q148 24 223 127q53 72 83 194q16 61 16 114v17q-3 60 -25.5 103.5 t-73 67.5t-126.5 24h-219zM272 705l146 581h164q143 0 190 -72q26 -41 26 -104q0 -49 -16 -111q-36 -147 -121.5 -220.5t-232.5 -73.5h-156zM344 762h98q118 0 186.5 59t98.5 178q13 51 13 90q0 51 -22 84q-37 58 -151 58h-106z" />
<glyph unicode="q" horiz-adv-x="804" d="M78 232q-2 14 -2 29q0 58 18 120l158 633q42 167 155 274t277 107q85 0 144 -30t85.5 -81.5t31.5 -121.5q1 -12 1 -26q0 -58 -18 -122l-158 -633q-45 -178 -121 -264l109 -191h-189l-57 99q-81 -37 -178 -37q-84 0 -142 32.5t-83.5 86.5t-30.5 125zM136 254 q4 -61 24.5 -108t69 -75t118.5 -28q106 0 197 55l65 -114h45l-80 133q56 48 85 110.5t53 153.5l157 633q15 60 15 112q0 69 -27 120q-49 91 -188 91q-136 0 -230.5 -91t-130.5 -232l-157 -633q-16 -56 -16 -108v-19zM178 283q0 55 15 114l151 607q32 130 113.5 214.5 t204.5 84.5q63 0 105.5 -24t60 -65t20.5 -95v-16q0 -47 -14 -97l-156 -623q-40 -161 -117 -233l-63 102h-43l75 -127q-85 -45 -174 -45q-63 0 -104 28t-57.5 74t-16.5 101zM237 303v-7q0 -41 11 -76q12 -39 43.5 -62t79.5 -23q40 0 71 10l-92 164h191l34 -61q28 57 46 135 l155 623q11 48 11 88q0 47 -15 84q-30 67 -125 67t-158 -68t-88 -173l-151 -607q-12 -49 -13 -94z" />
<glyph unicode="r" horiz-adv-x="708" d="M-14 0l344 1380h295q78 0 130.5 -18.5t80.5 -51.5q26 -32 36 -82q6 -31 6 -64q0 -20 -2 -42q-6 -56 -24 -129q-50 -207 -168 -303q34 -42 38 -114q1 -14 0 -28q0 -58 -15 -112l-109 -436h-149l106 430q11 45 11 78q0 38 -15 60q-28 42 -123 42h-141l-152 -610h-149z M53 57h39l154 611h196q126 0 162 -56q20 -30 20 -80q0 -43 -14 -102l-94 -373h39l96 379q14 59 14 104q0 121 -102 146q52 15 92.5 47t67 77t43 87.5t29.5 95.5q22 95 22 167v6q-1 74 -52 116.5t-155 42.5h-239zM254 705l145 581h193q96 0 142 -38q45 -37 45 -101t-21 -154 q-25 -102 -61 -162.5t-101.5 -93t-167.5 -32.5h-174zM324 762h118q80 0 131 26.5t78.5 74t48.5 130.5q17 71 19 124v6q-1 49 -33 77q-34 30 -108 31h-138z" />
<glyph unicode="s" horiz-adv-x="743" d="M123 471h149q-13 -53 -20 -91q-8 -40 -12 -80q-2 -18 -2 -33q0 -19 3 -35q5 -28 18 -50.5t38.5 -33.5t62.5 -11q88 0 146 51t82 142q5 20 5 41q0 32 -12 66q-20 56 -47.5 93t-70.5 82l2 -2q-101 88 -159 204q-37 74 -36 153q0 44 11 90q36 146 146.5 242t256.5 96 q67 0 114 -15.5t72 -48.5q24 -33 36 -71q9 -28 9 -67q0 -15 -1 -29q-4 -58 -13 -109.5t-27 -124.5h-149q11 47 17.5 79.5t11.5 72.5q3 22 3 40q0 14 -2 26q-4 26 -14.5 50t-34.5 35.5t-59 11.5q-81 0 -139.5 -56t-79.5 -142q-5 -21 -6.5 -40.5t5.5 -42t10.5 -37t20.5 -40 t23 -35.5t30 -38.5t29 -34.5t33 -38v2q28 -32 44.5 -51.5t40.5 -51.5t37 -55.5t27.5 -56.5t19.5 -61.5t4.5 -63.5t-9.5 -71q-42 -166 -146 -255t-267 -89q-126 0 -184 55t-58 161q0 107 41 267zM138 218q1 -82 50.5 -127.5t149.5 -45.5q136 0 223 74t121 213q8 33 8 65v20 q-4 42 -18.5 77.5t-37 71t-50 67t-56.5 64.5t-56.5 63.5t-49.5 65.5t-38 68.5t-20 73.5q-1 10 0 20q0 29 7 59q28 110 105.5 183t185.5 73q48 0 81.5 -13t49.5 -38q15 -26 23 -54q5 -19 6 -44q0 -12 -2 -24q-4 -40 -9.5 -71.5t-15.5 -73.5h34q17 68 24 119q4 31 4 60 q1 19 -1 37q-4 46 -24 75t-60 46t-100 17q-120 0 -212 -80t-122 -202q-9 -37 -9 -74q0 -165 181 -328h-2q71 -71 114 -159q29 -60 29 -116q0 -26 -6 -50q-30 -119 -106 -184.5t-193 -65.5q-49 0 -83.5 14.5t-51.5 41.5q-17 26 -25 58q-7 24 -7 55q1 9 1 17q2 40 7.5 74 t15.5 74h-39q-26 -110 -27 -190q1 -3 1 -6z" />
<glyph unicode="t" horiz-adv-x="710" d="M225 2l307 1231h-229l37 149h608l-37 -149h-229l-307 -1231h-150zM293 57h39l307 1231h229l11 37h-496l-10 -37h227z" />
<glyph unicode="u" horiz-adv-x="792" d="M86 350l256 1032h152l-256 -1022q-10 -43 -10 -79q0 -49 18 -83q32 -62 125 -61q94 0 157.5 61.5t87.5 161.5l256 1022h152l-258 -1032q-41 -165 -154 -263.5t-278 -98.5q-163 0 -226 98q-38 59 -38 144q0 55 16 120zM143 350q-14 -56 -14 -103q0 -70 31 -119 q52 -83 188 -83t231 83t130 222l243 975h-37l-241 -965q-31 -126 -113 -203t-205 -77q-121 0 -164 77q-25 45 -25 106q0 44 13 97l242 965h-37z" />
<glyph unicode="v" horiz-adv-x="806" d="M297 2l22 1380h156l-18 -983l467 983h153l-659 -1380h-121zM354 57h31l608 1268h-39l-561 -1180l23 1180h-39z" />
<glyph unicode="w" horiz-adv-x="1206" d="M287 0l43 1380h149l-26 -917q64 154 195.5 461.5t193.5 455.5h129l-70 -917l426 917h154l-641 -1380h-125l61 860q-365 -856 -366 -860h-123zM344 57h29l487 1137l-84 -1137h31l590 1268h-39l-537 -1157l86 1157h-30l-490 -1157l33 1157h-35z" />
<glyph unicode="x" horiz-adv-x="716" d="M-45 0l438 686q-52 384 -84 694h158l57 -485l303 485h160l-432 -694q24 -188 96 -686h-159l-70 479l-305 -479h-162zM51 57h39l371 576l82 -576h39q-14 105 -43.5 314t-44.5 313l399 641h-39l-369 -590l-71 590h-41q14 -120 80 -641z" />
<glyph unicode="y" horiz-adv-x="722" d="M248 0l155 629q-82 627 -94 751h160l68 -528q171 267 333 528h160l-475 -751l-156 -629h-151zM317 57h39l146 582l432 686h-39l-397 -635l-82 635h-39q5 -47 86 -686z" />
<glyph unicode="z" horiz-adv-x="727" d="M-4 0l29 117l731 1114h-426l39 149h602l-29 -114l-731 -1116h461l-37 -150h-639zM63 57h527l10 37h-485v4l774 1180l12 47h-489l-11 -39h451v-2l-776 -1180z" />
<glyph unicode="{" horiz-adv-x="442" d="M124 217.5q5 40.5 19 97.5l31 121q17 53 12 100t-43 70l31 123q47 19 72 58.5t39 99.5q1 3 7 31.5t11 44.5q1 7 21 90q12 47 25.5 84t34.5 76.5t50 68t68.5 51.5t93.5 35t121 12l-39 -149q-96 0 -139.5 -41.5t-63.5 -118.5q-3 -12 -18 -88q-13 -67 -21 -96 q-36 -147 -106 -217q36 -63 -6 -219l-15 -60q-2 -10 -8 -30.5t-8 -30.5q-11 -49 -12 -89t30.5 -65.5t98.5 -25.5l-37 -150q-81 -1 -134.5 16t-79 44.5t-33 72t-2.5 85zM182 156q5 -45 41 -72t107 -27l10 37q-69 0 -98 35.5t-23 89.5t21.5 121.5t33.5 129.5t14.5 115.5 t-36.5 76.5l4 12q43 27 72 75.5t44 104t26.5 117t26.5 117t38.5 100.5t67 71.5t106.5 26.5l10 39q-74 0 -126.5 -30.5t-81 -81t-47.5 -111.5t-32 -126t-28 -121.5t-42.5 -100.5t-68.5 -60l-12 -53q32 -19 38 -62t-5.5 -95.5t-28 -112t-26.5 -115t-5 -100.5z" />
<glyph unicode="|" horiz-adv-x="223" d="M25 0l346 1395h147l-346 -1395h-147zM92 57h37l320 1280h-37z" />
<glyph unicode="}" horiz-adv-x="450" d="M16 0l37 150q51 0 87 12.5t58 38t34 51.5t22 65q3 12 9 35.5t9 34.5q3 12 8.5 36.5t8.5 37.5q36 148 104 211q-34 77 6 227q3 16 10.5 44t10.5 40q11 31 22 82q10 46 10.5 83t-31.5 60t-99 23l38 149q80 0 133.5 -18t79.5 -47t34.5 -73.5t3.5 -88t-19 -100.5 q-2 -8 -25 -90q-20 -67 -22 -76q-15 -51 -9.5 -95t42.5 -63l-31 -123q-49 -23 -73 -63.5t-40 -106.5l-31 -121q-14 -56 -29.5 -97.5t-45.5 -85.5t-69.5 -71.5t-101.5 -44.5t-141 -16zM86 57q71 0 121 27t77.5 72t45 100.5t30.5 115t28 112t43 95.5t69 62l12 53 q-29 14 -37 50t1.5 82.5t23.5 102.5t31 111t21.5 106.5t-3.5 91t-44.5 63.5t-101.5 24l-10 -39q72 0 101.5 -35.5t22.5 -91t-24.5 -126t-37.5 -136.5t-18.5 -128t34.5 -95l-4 -12q-41 -20 -68.5 -62.5t-42 -94t-26.5 -109t-27.5 -110.5t-38.5 -96.5t-65 -69.5t-103 -26z" />
<glyph unicode="~" horiz-adv-x="655" d="M150 723q170 104 241 104q64 0 152 -47h-2q66 -32 94 -32q15 0 47 14l33 18l84 -129q-160 -57 -207 -57q-69 0 -146 47q-6 3 -21.5 11.5t-23 12.5t-20 7.5t-23.5 3.5q-32 0 -122 -70zM233 715l23 -31q57 47 117 47q43 0 113.5 -40t119.5 -40q32 0 105 25l-25 33 q-6 -2 -20.5 -7.5t-25.5 -8.5t-19 -3q-43 0 -117.5 41t-126.5 41q-53 0 -144 -57z" />
<glyph unicode="&#xa1;" horiz-adv-x="231" d="M-4 2l285 1149h151l-287 -1149h-149zM66 59h36l258 1037h-36zM295 1210l43 172h151l-43 -172h-151zM367 1266h36l15 61h-37z" />
<glyph unicode="&#xa8;" horiz-adv-x="462" d="M305 1210l43 172h150l-43 -172h-150zM375 1266h39l14 59h-39zM602 1210l43 172h152l-43 -172h-152zM674 1266h37l14 59h-37z" />
<glyph unicode="&#xa9;" horiz-adv-x="1538" d="M195 696q47 188 178 346.5t312.5 251t369.5 92.5q112 0 209.5 -35t166 -98t113 -149.5t51 -189.5t-19.5 -218q-46 -188 -178.5 -347t-315 -251t-370.5 -92q-187 0 -322.5 93t-187.5 251.5t-6 345.5zM250 696q-42 -171 6.5 -317.5t173 -232t295.5 -85.5q129 0 259 50.5 t236.5 135.5t186 202.5t111.5 246.5q43 172 -6 318t-174.5 230.5t-297.5 84.5t-338.5 -84.5t-287.5 -230.5t-164 -318zM285 696q41 164 154.5 301.5t271 218t321.5 80.5q98 0 183 -30.5t145 -84.5t99 -129.5t45 -165t-17 -190.5q-41 -165 -156.5 -304t-274.5 -219.5 t-323 -80.5q-165 0 -282.5 81t-161.5 219.5t-4 303.5zM340 696q-36 -148 4.5 -273.5t147.5 -199t256 -73.5t293 73t248 198.5t141 274.5t-5.5 274t-150.5 197t-256 72t-291 -72.5t-246.5 -197.5t-140.5 -273zM584 481l104 420q31 122 109 195t200 73t162.5 -73.5t9.5 -194.5 l-20 -84h-145q51 209 -43 209q-46 0 -78 -36t-45 -89l-105 -420q-13 -54 1 -89.5t61 -35.5q93 0 145 207h145q-19 -78 -44.5 -137.5t-63.5 -110t-93.5 -77.5t-125.5 -27q-123 0 -164 73t-10 197zM641 481q-25 -99 6 -157t125 -58q183 0 244 240h-35q-52 -207 -201 -207 q-75 0 -99 52.5t-5 129.5l104 420q21 77 70.5 128.5t124.5 51.5q149 0 98 -207h35l6 27q25 96 -6.5 154.5t-124.5 58.5t-153 -58t-85 -155z" />
<glyph unicode="&#xab;" horiz-adv-x="995" d="M193 690l716 690h189l-717 -690l119 -219q108 -215 254 -471h-187zM266 690l340 -633h43q-63 114 -178 330t-162 303l658 635h-45zM510 690l713 690h192l-717 -688l150 -284q144 -272 221 -408h-188zM584 690l338 -633h43q-68 123 -192 357t-146 276l655 635h-45z" />
<glyph unicode="&#xad;" horiz-adv-x="653" d="M162 610l37 150h555l-37 -150h-555zM233 666h443l8 36h-442z" />
<glyph unicode="&#xae;" horiz-adv-x="1538" d="M195 696q47 188 178 346.5t312.5 251t369.5 92.5q112 0 209.5 -35t166 -98t113 -149.5t51 -189.5t-19.5 -218q-46 -188 -178.5 -347t-315 -251t-370.5 -92q-187 0 -322.5 93t-187.5 251.5t-6 345.5zM250 696q-42 -171 6.5 -317.5t173 -232t295.5 -85.5q129 0 259 50.5 t236.5 135.5t186 202.5t111.5 246.5q43 172 -6 318t-174.5 230.5t-297.5 84.5t-338.5 -84.5t-287.5 -230.5t-164 -318zM285 696q41 164 154.5 301.5t271 218t321.5 80.5q98 0 183 -30.5t145 -84.5t99 -129.5t45 -165t-17 -190.5q-41 -165 -156.5 -304t-274.5 -219.5 t-323 -80.5q-165 0 -282.5 81t-161.5 219.5t-4 303.5zM340 696q-36 -148 4.5 -273.5t147.5 -199t256 -73.5t293 73t248 198.5t141 274.5t-5.5 274t-150.5 197t-256 72t-291 -72.5t-246.5 -197.5t-140.5 -273zM592 270l223 893h191q81 0 121.5 -29.5t42.5 -83t-15 -126.5 q-29 -116 -102 -197q35 -58 18 -127l-84 -330h-143l82 322q7 31 -7.5 43t-50.5 12h-39l-94 -377h-143zM662 328h30l94 374h97q65 0 88.5 -23.5t9.5 -86.5l-68 -264h33l70 272q18 81 -49 119q98 62 133 205q13 56 11 97t-31.5 64t-88.5 23h-135zM795 733l86 344h96 q73 0 93.5 -40.5t-1.5 -112.5q-49 -191 -178 -191h-96zM866 791h39q75 0 109 133q23 98 -51 98h-39z" />
<glyph unicode="&#xb0;" horiz-adv-x="475" d="M315 1268q20 80 91.5 139t152.5 59q83 0 128 -57t24 -141q-22 -83 -95 -140t-155 -57q-81 0 -123.5 59t-22.5 138zM371 1268q-14 -56 17 -98t87 -42q59 0 111 41t67 99q15 59 -17 100t-91 41q-57 0 -108.5 -42t-65.5 -99zM410 1270q10 44 47 74t80 30q45 0 69 -29.5 t12 -74.5q-10 -44 -49 -73.5t-84 -29.5q-42 0 -64 30t-11 73zM465 1270q-5 -20 4.5 -33.5t28.5 -13.5q22 0 40.5 13.5t22.5 33.5q6 21 -5.5 34t-33.5 13q-19 0 -36 -13.5t-21 -33.5z" />
<glyph unicode="&#xb1;" horiz-adv-x="708" d="M82 289l37 149h575l-37 -149h-575zM154 346h462l9 35h-463zM197 762l39 151h221l59 240h152l-60 -240h223l-38 -151h-224l-59 -242h-152l60 242h-221zM268 817h221l-59 -239h37l59 239h226l10 41h-225l59 238h-37l-59 -238h-221z" />
<glyph unicode="&#xb4;" horiz-adv-x="444" d="M377 1116l217 266h174l-240 -266h-151zM487 1171h27l137 154h-39z" />
<glyph unicode="&#xb7;" horiz-adv-x="317" d="M236 680q9 34 42 61t68 27q36 0 53 -27.5t9 -60.5q-8 -35 -38 -61.5t-67 -26.5q-36 0 -56 26t-11 62zM293 680q-3 -13 4.5 -22t19.5 -9t22 9.5t13 21.5q3 11 -2.5 21t-17.5 10t-24 -9.5t-15 -21.5z" />
<glyph unicode="&#xb8;" horiz-adv-x="376" d="M10 -141q81 34 84 43q1 7 -11.5 12.5t-29.5 7.5l27 109l14 53h72l-12 -45q46 0 76 -34t18 -85q-13 -53 -76 -100.5t-135 -65.5zM80 -166l2 -14q35 8 68.5 37t42.5 63q12 54 -33 64q-6 2 -23 2q-11 0 -31 -4q-3 -1 -8 -3.5t-8 -3.5q30 -7 48.5 -25.5t11.5 -47.5 q-6 -19 -27 -38.5t-43 -29.5z" />
<glyph unicode="&#xba;" horiz-adv-x="475" d="M311 1243q20 78 91 135.5t149 57.5t122.5 -57.5t24.5 -135.5t-92.5 -135t-150.5 -57t-121 57t-23 135zM367 1243q-14 -56 16.5 -96.5t85.5 -40.5q57 0 108.5 40.5t65.5 96.5q14 57 -16.5 97t-87.5 40q-56 0 -107.5 -40.5t-64.5 -96.5zM401 1243q11 43 48.5 74t80.5 31 q44 0 65.5 -31t10.5 -74q-10 -43 -47 -71.5t-80 -28.5t-65.5 28.5t-12.5 71.5zM457 1243q-4 -19 6 -32t29 -13q20 0 37 13t22 32q5 22 -4.5 35.5t-30.5 13.5t-38 -14t-21 -35z" />
<glyph unicode="&#xbb;" horiz-adv-x="1042" d="M-18 0l718 690q-218 396 -370 690h186l373 -690l-717 -690h-190zM113 57h43l661 633l-344 635h-43q150 -282 342 -635zM317 0l717 690q-184 335 -368 690h184l373 -690l-717 -690h-189zM449 57h40l660 633l-342 635h-41q224 -421 342 -635z" />
<glyph unicode="&#xbf;" horiz-adv-x="708" d="M65 214q-2 66 19 140q28 114 96 208.5t174 195.5q64 66 93 126.5t55 164.5l20 79h150l-23 -88q-18 -74 -39.5 -132t-40 -94.5t-45 -70t-44 -50.5t-48 -45.5t-47.5 -45.5v2q-40 -40 -61.5 -65.5t-46.5 -72.5t-39 -104q-58 -221 102 -221q46 0 86.5 31.5t70 84t50 106 t35.5 112.5h149q-17 -69 -41 -133.5t-62.5 -130t-84.5 -113.5t-109.5 -78t-134.5 -30q-82 0 -136 29t-75 79t-23 116zM123.5 235.5q-0.5 -53.5 17 -97t61.5 -67.5t111 -24q72 0 133 34t102.5 91.5t68.5 118t45 129.5h-35q-12 -47 -28.5 -89.5t-43 -89t-58 -80t-76 -55.5 t-95.5 -22q-216 0 -146 278q15 62 41 112t56.5 84.5t64.5 67t69.5 69t68 80.5t63 112t51.5 153l8 31h-39q-13 -51 -22 -80t-28.5 -78.5t-50.5 -96t-73 -93.5q-72 -68 -114 -115t-78.5 -112t-55.5 -142q-17 -65 -17.5 -118.5zM543 1210l43 172h149l-43 -172h-149zM612 1266 h39l15 59h-39z" />
<glyph unicode="&#xc0;" horiz-adv-x="890" d="M20 0l660 1380h119l-31 -1380h-154l13 395h-262l-191 -395h-154zM102 57h39l187 394h356l-10 -394h37l28 1268h-28zM346 487l354 744l-14 -744h-340zM432 543h197l10 438zM662 1714h180l98 -268h-166zM754 1657l63 -156h37l-57 156h-43z" />
<glyph unicode="&#xc1;" horiz-adv-x="890" d="M20 0l660 1380h119l-31 -1380h-154l13 395h-262l-191 -395h-154zM102 57h39l187 394h356l-10 -394h37l28 1268h-28zM346 487l354 744l-14 -744h-340zM432 543h197l10 438zM590 1448l217 266h174l-240 -266h-151zM700 1503h27l137 154h-39z" />
<glyph unicode="&#xc2;" horiz-adv-x="890" d="M20 0l660 1380h119l-31 -1380h-154l13 395h-262l-191 -395h-154zM102 57h39l187 394h356l-10 -394h37l28 1268h-28zM346 487l354 744l-14 -744h-340zM432 543h197l10 438zM541 1434l215 286h129l80 -286h-152l-41 90l-80 -90h-151zM645 1491h31l112 133h13l53 -133h27 l-45 172h-60z" />
<glyph unicode="&#xc3;" horiz-adv-x="890" d="M20 0l660 1380h119l-31 -1380h-154l13 395h-262l-191 -395h-154zM102 57h39l187 394h356l-10 -394h37l28 1268h-28zM346 487l354 744l-14 -744h-340zM432 543h197l10 438zM465 1597q56 33 87.5 51t77.5 36t77 18q29 0 59.5 -8t46 -15.5t47.5 -23.5h-2q4 -2 18.5 -9 t20 -9.5t16.5 -7t19.5 -6t17.5 -1.5q16 0 47 14l35 19l82 -129q-163 -58 -207 -58q-66 0 -145 48q-6 3 -17.5 9.5t-18 9.5t-16.5 7t-18.5 6t-17.5 2q-34 0 -123 -69zM549 1589l22 -30q57 47 117 47q43 0 114 -40t120 -40q34 0 104 24l-25 33q-5 -2 -20 -7t-26 -8t-19 -3 q-36 0 -76 20.5t-82 41t-84 20.5q-53 0 -145 -58z" />
<glyph unicode="&#xc4;" horiz-adv-x="890" d="M20 0l660 1380h119l-31 -1380h-154l13 395h-262l-191 -395h-154zM102 57h39l187 394h356l-10 -394h37l28 1268h-28zM346 487l354 744l-14 -744h-340zM432 543h197l10 438zM535 1470l43 172h149l-43 -172h-149zM604 1526h39l14 59h-39zM831 1470l43 172h152l-43 -172h-152 zM903 1526h37l14 59h-36z" />
<glyph unicode="&#xc5;" horiz-adv-x="890" d="M20 0l660 1380h119l-31 -1380h-154l13 395h-262l-191 -395h-154zM102 57h39l187 394h356l-10 -394h37l28 1268h-28zM346 487l354 744l-14 -744h-340zM432 543h197l10 438zM588 1534q20 77 88 132.5t145 55.5q76 0 119 -56t23 -132q-19 -76 -88.5 -130t-145.5 -54 q-78 0 -119 53.5t-22 130.5zM643 1534q-12 -54 17 -90.5t83 -36.5q55 0 102.5 37t59.5 90q14 54 -14 93.5t-82 39.5t-103 -39.5t-63 -93.5zM684 1536q9 41 41 66.5t74 25.5q39 0 59 -27.5t10 -66.5q-9 -39 -43 -64.5t-73 -25.5q-42 0 -60.5 25t-7.5 67zM739 1536 q-9 -35 27 -35q16 0 29 9t16 24q5 15 -3.5 27t-23.5 12t-28.5 -11t-16.5 -26z" />
<glyph unicode="&#xc6;" horiz-adv-x="1165" d="M-29 0l869 1380h555l-37 -147h-404l-116 -467h249l-36 -150h-250l-117 -466h403l-36 -150h-555l153 616h-114l-396 -616h-168zM68 57h45l399 617h209l-156 -617h443l10 35h-406l146 582h252l8 35h-252l143 579h406l10 37h-461zM522 709l301 469l37 61l-39 -156l-92 -374 h-207zM618 766h68l41 170z" />
<glyph unicode="&#xc7;" horiz-adv-x="780" d="M75 232.5q-2 66.5 19 142.5l158 633q44 174 155.5 280.5t282.5 106.5q134 0 195.5 -55.5t60.5 -163.5t-41 -267h-151q11 43 17.5 72.5t12 67.5t4.5 64t-8 53t-22.5 43t-41.5 26t-63 10q-95 0 -159 -66.5t-91 -170.5l-157 -633q-25 -104 4.5 -172t124.5 -68 q59 0 103.5 24.5t75.5 73.5t51 104.5t40 135.5h152q-20 -81 -39 -139.5t-51 -122t-70.5 -105t-96.5 -72.5t-130 -40q35 -11 54 -40t9 -69q-13 -52 -73 -98t-132 -72l-26 105l6 2l17.5 7.5t21 10t18.5 13t10 14.5q1 2 -0.5 4t-5.5 3l-8 2t-11 2t-11.5 1.5t-11 1t-9.5 0.5 l29 111q-72 7 -120.5 39.5t-69 83.5t-22.5 117.5zM152 375q-37 -145 11.5 -238.5t176.5 -93.5l-6 -18q-7 -29 -12 -50t-7 -30.5t-3.5 -15t-2 -7.5t-0.5 -4q22 0 35.5 -1.5t25 -10t9.5 -23.5q-5 -38 -88 -78l10 -36q41 16 81 49.5t48 68.5q6 25 -12.5 45t-59.5 21l17 72l6 18 q76 6 134 35.5t98 81.5t65.5 112.5t46.5 143.5h-37q-13 -55 -29.5 -100t-44 -90.5t-61.5 -76t-83.5 -50t-109.5 -19.5q-63 0 -105.5 24t-60 65t-20.5 94t14 112l158 633q32 127 115.5 211t206.5 84q50 0 86.5 -12.5t56 -37t29.5 -54.5t9.5 -70t-6.5 -78t-18 -84h37 q93 370 -186 370q-143 0 -236.5 -90.5t-130.5 -238.5z" />
<glyph unicode="&#xc8;" horiz-adv-x="661" d="M6 0l342 1380h553l-37 -147h-405l-119 -471h270l-37 -150h-270l-115 -462h406l-37 -150h-551zM74 57h438l10 35h-403l143 578h270l9 35h-271l146 583h403l10 37h-440zM528 1720h181l98 -268h-166zM621 1663l63 -156h37l-57 156h-43z" />
<glyph unicode="&#xc9;" horiz-adv-x="661" d="M6 0l342 1380h553l-37 -147h-405l-119 -471h270l-37 -150h-270l-115 -462h406l-37 -150h-551zM74 57h438l10 35h-403l143 578h270l9 35h-271l146 583h403l10 37h-440zM500 1468l217 267h174l-240 -267h-151zM610 1524h27l137 153h-39z" />
<glyph unicode="&#xca;" horiz-adv-x="661" d="M6 0l342 1380h553l-37 -147h-405l-119 -471h270l-37 -150h-270l-115 -462h406l-37 -150h-551zM74 57h438l10 35h-403l143 578h270l9 35h-271l146 583h403l10 37h-440zM440 1434l215 286h129l80 -286h-151l-41 90l-80 -90h-152zM545 1491h30l113 133h12l54 -133h26 l-45 172h-59z" />
<glyph unicode="&#xcb;" horiz-adv-x="661" d="M6 0l342 1380h553l-37 -147h-405l-119 -471h270l-37 -150h-270l-115 -462h406l-37 -150h-551zM74 57h438l10 35h-403l143 578h270l9 35h-271l146 583h403l10 37h-440zM428 1477l43 172h150l-43 -172h-150zM498 1532h39l14 59h-39zM725 1477l43 172h152l-43 -172h-152z M797 1532h37l14 59h-37z" />
<glyph unicode="&#xcc;" horiz-adv-x="294" d="M14 0l344 1380h150l-344 -1380h-150zM82 57h39l317 1268h-39zM330 1729h180l98 -269h-166zM422 1671l63 -155h37l-57 155h-43z" />
<glyph unicode="&#xcd;" horiz-adv-x="294" d="M14 0l344 1380h150l-344 -1380h-150zM82 57h39l317 1268h-39zM291 1464l217 267h174l-240 -267h-151zM401 1520h27l137 153h-39z" />
<glyph unicode="&#xce;" horiz-adv-x="294" d="M14 0l344 1380h150l-344 -1380h-150zM82 57h39l317 1268h-39zM238 1434l215 286h129l80 -286h-152l-41 90l-80 -90h-151zM342 1491h31l112 133h13l53 -133h27l-46 172h-59z" />
<glyph unicode="&#xcf;" horiz-adv-x="294" d="M14 0l344 1380h150l-344 -1380h-150zM82 57h39l317 1268h-39zM233 1477l43 172h150l-43 -172h-150zM303 1532h39l14 59h-39zM530 1477l43 172h152l-43 -172h-152zM602 1532h37l14 59h-37z" />
<glyph unicode="&#xd0;" horiz-adv-x="768" d="M-23 614l35 150h181l155 616h295q91 0 151.5 -30.5t85 -83.5t27.5 -124.5t-20 -154.5l-150 -594q-21 -87 -56.5 -156t-88 -123.5t-127 -84t-166.5 -29.5h-295l152 614h-179zM45 672h182l-153 -615h237q150 0 241.5 90.5t129.5 245.5l149 594q20 71 17.5 132.5t-22.5 107 t-70.5 72t-126.5 26.5h-238l-153 -618h-183zM121 92l143 580h162l10 35h-162l144 581h188q70 0 116 -23.5t64.5 -67t19 -98t-17.5 -122.5l-141 -574q-37 -142 -119.5 -226.5t-218.5 -84.5h-188zM190 150h134q202 0 268 253l141 574q17 72 14.5 129t-41.5 92t-112 35h-133 l-119 -469h164l-37 -150h-164z" />
<glyph unicode="&#xd1;" horiz-adv-x="788" d="M6 0l344 1380h125l139 -913l230 913h149l-344 -1380h-125q-5 31 -141 913l-227 -913h-150zM74 57h39l288 1151q29 -186 85.5 -570t86.5 -581h31l318 1268h-35l-287 -1151l-176 1151h-33zM373 1583q57 34 87.5 51t76.5 35.5t77 18.5q29 0 60 -8.5t46 -15.5t48 -24h-2 q66 -32 92 -32q15 0 47 14l35 18l82 -129q-160 -57 -207 -57q-68 0 -145 47q-6 3 -21.5 11.5t-23 12.5t-20 7.5t-23.5 3.5q-33 0 -123 -70zM457 1575l22 -31q57 47 117 47q43 0 113.5 -40t119.5 -40q32 0 105 25l-25 33q-6 -2 -20.5 -7.5t-25.5 -8.5t-19 -3q-36 0 -76 20.5 t-82 41t-84 20.5q-54 0 -145 -57z" />
<glyph unicode="&#xd2;" d="M80.5 223q-4.5 71 17.5 152l158 633q43 168 156.5 277.5t279.5 109.5q69 0 120.5 -20t82 -55.5t45 -85t12.5 -106t-18 -120.5l-158 -633q-44 -177 -152.5 -282t-281.5 -105q-87 0 -146 30t-85 82t-30.5 123zM140.5 245.5q3.5 -60.5 24 -105.5t70 -71t121.5 -26 q144 0 234.5 90.5t128.5 241.5l158 633q19 67 16 127.5t-23.5 106t-69 72.5t-120.5 27q-139 0 -235 -95t-132 -238l-157 -633q-19 -69 -15.5 -129.5zM180.5 273.5q0.5 53.5 16.5 117.5l149 598q21 83 60.5 150.5t108.5 114t155 46.5q67 0 109.5 -25.5t58 -71t15 -98.5 t-16.5 -118l-152 -602q-34 -136 -112 -219.5t-207 -83.5q-67 0 -109.5 25t-59 69t-16 97.5zM238.5 296q-0.5 -44 11.5 -80.5t45 -57.5t84 -21q186 0 248 248l151 602q13 52 14.5 95.5t-10 81t-43.5 58.5t-84 21q-97 0 -161.5 -73t-92.5 -181l-149 -598q-13 -51 -13.5 -95z M573 1714h181l98 -268h-166zM666 1657l63 -156h37l-57 156h-43z" />
<glyph unicode="&#xd3;" d="M80.5 223q-4.5 71 17.5 152l158 633q43 168 156.5 277.5t279.5 109.5q69 0 120.5 -20t82 -55.5t45 -85t12.5 -106t-18 -120.5l-158 -633q-44 -177 -152.5 -282t-281.5 -105q-87 0 -146 30t-85 82t-30.5 123zM140.5 245.5q3.5 -60.5 24 -105.5t70 -71t121.5 -26 q144 0 234.5 90.5t128.5 241.5l158 633q19 67 16 127.5t-23.5 106t-69 72.5t-120.5 27q-139 0 -235 -95t-132 -238l-157 -633q-19 -69 -15.5 -129.5zM180.5 273.5q0.5 53.5 16.5 117.5l149 598q21 83 60.5 150.5t108.5 114t155 46.5q67 0 109.5 -25.5t58 -71t15 -98.5 t-16.5 -118l-152 -602q-34 -136 -112 -219.5t-207 -83.5q-67 0 -109.5 25t-59 69t-16 97.5zM238.5 296q-0.5 -44 11.5 -80.5t45 -57.5t84 -21q186 0 248 248l151 602q13 52 14.5 95.5t-10 81t-43.5 58.5t-84 21q-97 0 -161.5 -73t-92.5 -181l-149 -598q-13 -51 -13.5 -95z M590 1448l217 266h174l-240 -266h-151zM700 1503h27l137 154h-39z" />
<glyph unicode="&#xd4;" d="M80.5 223q-4.5 71 17.5 152l158 633q43 168 156.5 277.5t279.5 109.5q69 0 120.5 -20t82 -55.5t45 -85t12.5 -106t-18 -120.5l-158 -633q-44 -177 -152.5 -282t-281.5 -105q-87 0 -146 30t-85 82t-30.5 123zM140.5 245.5q3.5 -60.5 24 -105.5t70 -71t121.5 -26 q144 0 234.5 90.5t128.5 241.5l158 633q19 67 16 127.5t-23.5 106t-69 72.5t-120.5 27q-139 0 -235 -95t-132 -238l-157 -633q-19 -69 -15.5 -129.5zM180.5 273.5q0.5 53.5 16.5 117.5l149 598q21 83 60.5 150.5t108.5 114t155 46.5q67 0 109.5 -25.5t58 -71t15 -98.5 t-16.5 -118l-152 -602q-34 -136 -112 -219.5t-207 -83.5q-67 0 -109.5 25t-59 69t-16 97.5zM238.5 296q-0.5 -44 11.5 -80.5t45 -57.5t84 -21q186 0 248 248l151 602q13 52 14.5 95.5t-10 81t-43.5 58.5t-84 21q-97 0 -161.5 -73t-92.5 -181l-149 -598q-13 -51 -13.5 -95z M483 1434l215 286h129l80 -286h-151l-41 90l-80 -90h-152zM588 1491h30l113 133h12l54 -133h26l-45 172h-59z" />
<glyph unicode="&#xd5;" d="M80.5 223q-4.5 71 17.5 152l158 633q43 168 156.5 277.5t279.5 109.5q69 0 120.5 -20t82 -55.5t45 -85t12.5 -106t-18 -120.5l-158 -633q-44 -177 -152.5 -282t-281.5 -105q-87 0 -146 30t-85 82t-30.5 123zM140.5 245.5q3.5 -60.5 24 -105.5t70 -71t121.5 -26 q144 0 234.5 90.5t128.5 241.5l158 633q19 67 16 127.5t-23.5 106t-69 72.5t-120.5 27q-139 0 -235 -95t-132 -238l-157 -633q-19 -69 -15.5 -129.5zM180.5 273.5q0.5 53.5 16.5 117.5l149 598q21 83 60.5 150.5t108.5 114t155 46.5q67 0 109.5 -25.5t58 -71t15 -98.5 t-16.5 -118l-152 -602q-34 -136 -112 -219.5t-207 -83.5q-67 0 -109.5 25t-59 69t-16 97.5zM238.5 296q-0.5 -44 11.5 -80.5t45 -57.5t84 -21q186 0 248 248l151 602q13 52 14.5 95.5t-10 81t-43.5 58.5t-84 21q-97 0 -161.5 -73t-92.5 -181l-149 -598q-13 -51 -13.5 -95z M393 1583q56 33 87.5 51t77.5 36t77 18q29 0 60 -8.5t45 -15.5l48 -24h-2q66 -32 93 -32q15 0 47 14l35 18l81 -129q-160 -57 -206 -57q-69 0 -146 47q-6 3 -21.5 11.5t-23 12.5t-20 7.5t-23.5 3.5q-33 0 -123 -70zM477 1575l23 -31q57 47 116 47q43 0 114 -40t120 -40 q31 0 104 25l-24 33q-6 -2 -20.5 -7.5t-26 -8.5t-19.5 -3q-42 0 -116 41t-125 41q-55 0 -146 -57z" />
<glyph unicode="&#xd6;" d="M80.5 223q-4.5 71 17.5 152l158 633q43 168 156.5 277.5t279.5 109.5q69 0 120.5 -20t82 -55.5t45 -85t12.5 -106t-18 -120.5l-158 -633q-44 -177 -152.5 -282t-281.5 -105q-87 0 -146 30t-85 82t-30.5 123zM140.5 245.5q3.5 -60.5 24 -105.5t70 -71t121.5 -26 q144 0 234.5 90.5t128.5 241.5l158 633q19 67 16 127.5t-23.5 106t-69 72.5t-120.5 27q-139 0 -235 -95t-132 -238l-157 -633q-19 -69 -15.5 -129.5zM180.5 273.5q0.5 53.5 16.5 117.5l149 598q21 83 60.5 150.5t108.5 114t155 46.5q67 0 109.5 -25.5t58 -71t15 -98.5 t-16.5 -118l-152 -602q-34 -136 -112 -219.5t-207 -83.5q-67 0 -109.5 25t-59 69t-16 97.5zM238.5 296q-0.5 -44 11.5 -80.5t45 -57.5t84 -21q186 0 248 248l151 602q13 52 14.5 95.5t-10 81t-43.5 58.5t-84 21q-97 0 -161.5 -73t-92.5 -181l-149 -598q-13 -51 -13.5 -95z M483 1470l43 172h150l-43 -172h-150zM553 1526h39l14 59h-39zM780 1470l43 172h152l-43 -172h-152zM852 1526h37l14 59h-37z" />
<glyph unicode="&#xd7;" horiz-adv-x="772" d="M182 489l246 197l-145 197l141 96l139 -186l238 190l80 -104l-240 -193l145 -190l-133 -107l-143 193l-231 -187zM268 496l25 -25l237 188l144 -190l33 27l-144 190l238 193l-19 26l-239 -192l-144 190l-37 -24l146 -193z" />
<glyph unicode="&#xd8;" d="M-2 0l94 158q-24 98 10 229l152 608q41 168 153.5 276.5t280.5 108.5q93 0 166 -51l31 51h170l-119 -176q23 -96 -4 -209l-152 -608q-44 -175 -154 -281t-282 -106q-97 0 -164 43l-24 -43h-158zM88 57h39q7 12 23.5 35t23.5 35q67 -70 182 -70q144 0 237 90t130 240 l151 608q26 119 -2 205l82 125h-41q-40 -65 -53 -84q-77 84 -186 84q-140 0 -234 -93.5t-129 -236.5l-151 -608q-37 -141 -6 -223zM186 211q-11 102 9 176l151 608q30 124 113 208.5t205 84.5t170 -86q-147 -228 -648 -991zM203 172l641 985q8 -101 -6 -162l-152 -608 q-33 -129 -114.5 -212t-204.5 -83q-109 0 -164 80zM256 408q416 638 508 782q-35 43 -113 43q-94 0 -158.5 -68.5t-89.5 -169.5zM272 186q42 -36 109 -36q95 0 158 66.5t90 170.5l137 557zM766 944z" />
<glyph unicode="&#xd9;" horiz-adv-x="792" d="M86 350l256 1032h152l-256 -1022q-24 -100 8 -161.5t125 -61.5q94 0 157.5 61.5t87.5 161.5l256 1022h152l-258 -1032q-41 -165 -154 -263.5t-278 -98.5q-163 0 -226 98t-22 264zM143 350q-35 -139 17 -222t188 -83t231 83t130 222l243 975h-37l-241 -965 q-31 -126 -113 -203t-205 -77q-121 0 -164 77t-12 203l242 965h-37zM573 1714h181l98 -268h-166zM666 1657l63 -156h37l-57 156h-43z" />
<glyph unicode="&#xda;" horiz-adv-x="792" d="M86 350l256 1032h152l-256 -1022q-24 -100 8 -161.5t125 -61.5q94 0 157.5 61.5t87.5 161.5l256 1022h152l-258 -1032q-41 -165 -154 -263.5t-278 -98.5q-163 0 -226 98t-22 264zM143 350q-35 -139 17 -222t188 -83t231 83t130 222l243 975h-37l-241 -965 q-31 -126 -113 -203t-205 -77q-121 0 -164 77t-12 203l242 965h-37zM569 1448l217 266h175l-240 -266h-152zM680 1503h27l137 154h-39z" />
<glyph unicode="&#xdb;" horiz-adv-x="792" d="M86 350l256 1032h152l-256 -1022q-24 -100 8 -161.5t125 -61.5q94 0 157.5 61.5t87.5 161.5l256 1022h152l-258 -1032q-41 -165 -154 -263.5t-278 -98.5q-163 0 -226 98t-22 264zM143 350q-35 -139 17 -222t188 -83t231 83t130 222l243 975h-37l-241 -965 q-31 -126 -113 -203t-205 -77q-121 0 -164 77t-12 203l242 965h-37zM481 1434l215 286h129l80 -286h-151l-41 90l-80 -90h-152zM586 1491h30l113 133h12l54 -133h26l-45 172h-59z" />
<glyph unicode="&#xdc;" horiz-adv-x="792" d="M86 350l256 1032h152l-256 -1022q-24 -100 8 -161.5t125 -61.5q94 0 157.5 61.5t87.5 161.5l256 1022h152l-258 -1032q-41 -165 -154 -263.5t-278 -98.5q-163 0 -226 98t-22 264zM143 350q-35 -139 17 -222t188 -83t231 83t130 222l243 975h-37l-241 -965 q-31 -126 -113 -203t-205 -77q-121 0 -164 77t-12 203l242 965h-37zM485 1470l43 172h150l-43 -172h-150zM555 1526h39l14 59h-39zM782 1470l43 172h152l-43 -172h-152zM854 1526h37l14 59h-37z" />
<glyph unicode="&#xdd;" horiz-adv-x="722" d="M248 0l155 629q-82 627 -94 751h160l68 -528q171 267 333 528h160l-475 -751l-156 -629h-151zM317 57h39l146 582l432 686h-39l-397 -635l-82 635h-39q5 -47 86 -686zM549 1448l217 266h174l-240 -266h-151zM659 1503h27l137 154h-39z" />
<glyph unicode="&#xde;" horiz-adv-x="712" d="M10 0l344 1380h150l-78 -311q84 49 170 49q77 0 129.5 -29t75 -77t27 -111.5t-14.5 -132.5l-33 -131q-38 -151 -140 -250.5t-253 -99.5q-89 0 -145 47l-82 -334h-150zM80 57h35l104 416q23 -131 182 -131q122 0 206 84.5t116 210.5l33 131q17 79 10 144.5t-55 108 t-129 42.5q-79 0 -146 -37.5t-102 -95.5l98 395h-35zM253.5 553.5q1.5 47.5 16.5 103.5l23 93q14 56 35.5 102.5t54.5 87t81 63.5t107 23t96.5 -23t50.5 -63.5t12 -87.5t-15 -102l-23 -93q-15 -57 -37 -103.5t-55 -87.5t-81 -64t-107 -23t-96.5 23t-50.5 63.5t-11.5 88z M326 657q-56 -223 98 -223q84 0 135 62.5t76 160.5l22 93q52 219 -100 219q-84 0 -135 -61.5t-74 -157.5z" />
<glyph unicode="&#xdf;" horiz-adv-x="708" d="M-10 0l235 950q15 60 35.5 112.5t53.5 107t73.5 93t98.5 63t126 24.5q288 0 201 -353q-21 -82 -68.5 -169.5t-115.5 -139.5q73 -45 96.5 -131.5t-4.5 -189.5q-48 -190 -168.5 -278.5t-337.5 -88.5l35 145q143 0 219 52.5t106 169.5q26 102 -30.5 166t-179.5 73l34 139 q60 2 108 25t79 61.5t50.5 78.5t31.5 87q13 61 15 107t-25.5 73t-88.5 27q-130 0 -211 -311l-221 -893h-147zM57 55h37l209 838q92 367 281 367q83 0 121 -35t35.5 -93.5t-19.5 -134.5q-15 -57 -35.5 -105.5t-53.5 -95t-82 -74.5t-110 -30l-8 -35q124 -9 177.5 -86 t21.5 -204q-35 -145 -115.5 -211t-226.5 -66l-8 -35q160 0 252.5 75.5t132.5 236.5q29 117 -7.5 198t-140.5 101l6 24q46 9 86.5 43.5t69 82t48 93t30.5 88.5q75 297 -160 297q-68 0 -123.5 -30.5t-92.5 -83.5t-61 -108.5t-40 -121.5z" />
<glyph unicode="&#xe0;" horiz-adv-x="890" d="M20 0l660 1380h119l-31 -1380h-154l13 395h-262l-191 -395h-154zM102 57h39l187 394h356l-10 -394h37l28 1268h-28zM346 487l354 744l-14 -744h-340zM432 543h197l10 438zM662 1714h180l98 -268h-166zM754 1657l63 -156h37l-57 156h-43z" />
<glyph unicode="&#xe1;" horiz-adv-x="890" d="M20 0l660 1380h119l-31 -1380h-154l13 395h-262l-191 -395h-154zM102 57h39l187 394h356l-10 -394h37l28 1268h-28zM346 487l354 744l-14 -744h-340zM432 543h197l10 438zM590 1448l217 266h174l-240 -266h-151zM700 1503h27l137 154h-39z" />
<glyph unicode="&#xe2;" horiz-adv-x="890" d="M20 0l660 1380h119l-31 -1380h-154l13 395h-262l-191 -395h-154zM102 57h39l187 394h356l-10 -394h37l28 1268h-28zM346 487l354 744l-14 -744h-340zM432 543h197l10 438zM541 1434l215 286h129l80 -286h-152l-41 90l-80 -90h-151zM645 1491h31l112 133h13l53 -133h27 l-45 172h-60z" />
<glyph unicode="&#xe3;" horiz-adv-x="890" d="M20 0l660 1380h119l-31 -1380h-154l13 395h-262l-191 -395h-154zM102 57h39l187 394h356l-10 -394h37l28 1268h-28zM346 487l354 744l-14 -744h-340zM432 543h197l10 438zM465 1597q56 33 87.5 51t77.5 36t77 18q29 0 59.5 -8t46 -15.5t47.5 -23.5h-2q4 -2 18.5 -9 t20 -9.5t16.5 -7t19.5 -6t17.5 -1.5q16 0 47 14l35 19l82 -129q-163 -58 -207 -58q-66 0 -145 48q-6 3 -17.5 9.5t-18 9.5t-16.5 7t-18.5 6t-17.5 2q-34 0 -123 -69zM549 1589l22 -30q57 47 117 47q43 0 114 -40t120 -40q34 0 104 24l-25 33q-5 -2 -20 -7t-26 -8t-19 -3 q-36 0 -76 20.5t-82 41t-84 20.5q-53 0 -145 -58z" />
<glyph unicode="&#xe4;" horiz-adv-x="890" d="M20 0l660 1380h119l-31 -1380h-154l13 395h-262l-191 -395h-154zM102 57h39l187 394h356l-10 -394h37l28 1268h-28zM346 487l354 744l-14 -744h-340zM432 543h197l10 438zM535 1470l43 172h149l-43 -172h-149zM604 1526h39l14 59h-39zM831 1470l43 172h152l-43 -172h-152 zM903 1526h37l14 59h-36z" />
<glyph unicode="&#xe5;" horiz-adv-x="890" d="M20 0l660 1380h119l-31 -1380h-154l13 395h-262l-191 -395h-154zM102 57h39l187 394h356l-10 -394h37l28 1268h-28zM346 487l354 744l-14 -744h-340zM432 543h197l10 438zM588 1534q20 77 88 132.5t145 55.5q76 0 119 -56t23 -132q-19 -76 -88.5 -130t-145.5 -54 q-78 0 -119 53.5t-22 130.5zM643 1534q-12 -54 17 -90.5t83 -36.5q55 0 102.5 37t59.5 90q14 54 -14 93.5t-82 39.5t-103 -39.5t-63 -93.5zM684 1536q9 41 41 66.5t74 25.5q39 0 59 -27.5t10 -66.5q-9 -39 -43 -64.5t-73 -25.5q-42 0 -60.5 25t-7.5 67zM739 1536 q-9 -35 27 -35q16 0 29 9t16 24q5 15 -3.5 27t-23.5 12t-28.5 -11t-16.5 -26z" />
<glyph unicode="&#xe6;" horiz-adv-x="1165" d="M-29 0l869 1380h555l-37 -147h-404l-116 -467h249l-36 -150h-250l-117 -466h403l-36 -150h-555l153 616h-114l-396 -616h-168zM68 57h45l399 617h209l-156 -617h443l10 35h-406l146 582h252l8 35h-252l143 579h406l10 37h-461zM522 709l301 469l37 61l-39 -156l-92 -374 h-207zM618 766h68l41 170z" />
<glyph unicode="&#xe7;" horiz-adv-x="780" d="M75 232.5q-2 66.5 19 142.5l158 633q44 174 155.5 280.5t282.5 106.5q134 0 195.5 -55.5t60.5 -163.5t-41 -267h-151q11 43 17.5 72.5t12 67.5t4.5 64t-8 53t-22.5 43t-41.5 26t-63 10q-95 0 -159 -66.5t-91 -170.5l-157 -633q-25 -104 4.5 -172t124.5 -68 q59 0 103.5 24.5t75.5 73.5t51 104.5t40 135.5h152q-20 -81 -39 -139.5t-51 -122t-70.5 -105t-96.5 -72.5t-130 -40q35 -11 54 -40t9 -69q-13 -52 -73 -98t-132 -72l-26 105l6 2l17.5 7.5t21 10t18.5 13t10 14.5q1 2 -0.5 4t-5.5 3l-8 2t-11 2t-11.5 1.5t-11 1t-9.5 0.5 l29 111q-72 7 -120.5 39.5t-69 83.5t-22.5 117.5zM152 375q-37 -145 11.5 -238.5t176.5 -93.5l-6 -18q-7 -29 -12 -50t-7 -30.5t-3.5 -15t-2 -7.5t-0.5 -4q22 0 35.5 -1.5t25 -10t9.5 -23.5q-5 -38 -88 -78l10 -36q41 16 81 49.5t48 68.5q6 25 -12.5 45t-59.5 21l17 72l6 18 q76 6 134 35.5t98 81.5t65.5 112.5t46.5 143.5h-37q-13 -55 -29.5 -100t-44 -90.5t-61.5 -76t-83.5 -50t-109.5 -19.5q-63 0 -105.5 24t-60 65t-20.5 94t14 112l158 633q32 127 115.5 211t206.5 84q50 0 86.5 -12.5t56 -37t29.5 -54.5t9.5 -70t-6.5 -78t-18 -84h37 q93 370 -186 370q-143 0 -236.5 -90.5t-130.5 -238.5z" />
<glyph unicode="&#xe8;" horiz-adv-x="661" d="M6 0l342 1380h553l-37 -147h-405l-119 -471h270l-37 -150h-270l-115 -462h406l-37 -150h-551zM74 57h438l10 35h-403l143 578h270l9 35h-271l146 583h403l10 37h-440zM528 1720h181l98 -268h-166zM621 1663l63 -156h37l-57 156h-43z" />
<glyph unicode="&#xe9;" horiz-adv-x="661" d="M6 0l342 1380h553l-37 -147h-405l-119 -471h270l-37 -150h-270l-115 -462h406l-37 -150h-551zM74 57h438l10 35h-403l143 578h270l9 35h-271l146 583h403l10 37h-440zM500 1468l217 267h174l-240 -267h-151zM610 1524h27l137 153h-39z" />
<glyph unicode="&#xea;" horiz-adv-x="661" d="M6 0l342 1380h553l-37 -147h-405l-119 -471h270l-37 -150h-270l-115 -462h406l-37 -150h-551zM74 57h438l10 35h-403l143 578h270l9 35h-271l146 583h403l10 37h-440zM440 1434l215 286h129l80 -286h-151l-41 90l-80 -90h-152zM545 1491h30l113 133h12l54 -133h26 l-45 172h-59z" />
<glyph unicode="&#xeb;" horiz-adv-x="661" d="M6 0l342 1380h553l-37 -147h-405l-119 -471h270l-37 -150h-270l-115 -462h406l-37 -150h-551zM74 57h438l10 35h-403l143 578h270l9 35h-271l146 583h403l10 37h-440zM428 1477l43 172h150l-43 -172h-150zM498 1532h39l14 59h-39zM725 1477l43 172h152l-43 -172h-152z M797 1532h37l14 59h-37z" />
<glyph unicode="&#xec;" horiz-adv-x="294" d="M14 0l344 1380h150l-344 -1380h-150zM82 57h39l317 1268h-39zM330 1729h180l98 -269h-166zM422 1671l63 -155h37l-57 155h-43z" />
<glyph unicode="&#xed;" horiz-adv-x="294" d="M14 0l344 1380h150l-344 -1380h-150zM82 57h39l317 1268h-39zM291 1464l217 267h174l-240 -267h-151zM401 1520h27l137 153h-39z" />
<glyph unicode="&#xee;" horiz-adv-x="294" d="M14 0l344 1380h150l-344 -1380h-150zM82 57h39l317 1268h-39zM238 1434l215 286h129l80 -286h-152l-41 90l-80 -90h-151zM342 1491h31l112 133h13l53 -133h27l-46 172h-59z" />
<glyph unicode="&#xef;" horiz-adv-x="294" d="M14 0l344 1380h150l-344 -1380h-150zM82 57h39l317 1268h-39zM233 1477l43 172h150l-43 -172h-150zM303 1532h39l14 59h-39zM530 1477l43 172h152l-43 -172h-152zM602 1532h37l14 59h-37z" />
<glyph unicode="&#xf0;" horiz-adv-x="768" d="M-23 614l35 150h181l155 616h295q91 0 151.5 -30.5t85 -83.5t27.5 -124.5t-20 -154.5l-150 -594q-21 -87 -56.5 -156t-88 -123.5t-127 -84t-166.5 -29.5h-295l152 614h-179zM45 672h182l-153 -615h237q150 0 241.5 90.5t129.5 245.5l149 594q20 71 17.5 132.5t-22.5 107 t-70.5 72t-126.5 26.5h-238l-153 -618h-183zM121 92l143 580h162l10 35h-162l144 581h188q70 0 116 -23.5t64.5 -67t19 -98t-17.5 -122.5l-141 -574q-37 -142 -119.5 -226.5t-218.5 -84.5h-188zM190 150h134q202 0 268 253l141 574q17 72 14.5 129t-41.5 92t-112 35h-133 l-119 -469h164l-37 -150h-164z" />
<glyph unicode="&#xf1;" horiz-adv-x="788" d="M6 0l344 1380h125l139 -913l230 913h149l-344 -1380h-125q-5 31 -141 913l-227 -913h-150zM74 57h39l288 1151q29 -186 85.5 -570t86.5 -581h31l318 1268h-35l-287 -1151l-176 1151h-33zM373 1583q57 34 87.5 51t76.5 35.5t77 18.5q29 0 60 -8.5t46 -15.5t48 -24h-2 q66 -32 92 -32q15 0 47 14l35 18l82 -129q-160 -57 -207 -57q-68 0 -145 47q-6 3 -21.5 11.5t-23 12.5t-20 7.5t-23.5 3.5q-33 0 -123 -70zM457 1575l22 -31q57 47 117 47q43 0 113.5 -40t119.5 -40q32 0 105 25l-25 33q-6 -2 -20.5 -7.5t-25.5 -8.5t-19 -3q-36 0 -76 20.5 t-82 41t-84 20.5q-54 0 -145 -57z" />
<glyph unicode="&#xf2;" d="M80.5 223q-4.5 71 17.5 152l158 633q43 168 156.5 277.5t279.5 109.5q69 0 120.5 -20t82 -55.5t45 -85t12.5 -106t-18 -120.5l-158 -633q-44 -177 -152.5 -282t-281.5 -105q-87 0 -146 30t-85 82t-30.5 123zM140.5 245.5q3.5 -60.5 24 -105.5t70 -71t121.5 -26 q144 0 234.5 90.5t128.5 241.5l158 633q19 67 16 127.5t-23.5 106t-69 72.5t-120.5 27q-139 0 -235 -95t-132 -238l-157 -633q-19 -69 -15.5 -129.5zM180.5 273.5q0.5 53.5 16.5 117.5l149 598q21 83 60.5 150.5t108.5 114t155 46.5q67 0 109.5 -25.5t58 -71t15 -98.5 t-16.5 -118l-152 -602q-34 -136 -112 -219.5t-207 -83.5q-67 0 -109.5 25t-59 69t-16 97.5zM238.5 296q-0.5 -44 11.5 -80.5t45 -57.5t84 -21q186 0 248 248l151 602q13 52 14.5 95.5t-10 81t-43.5 58.5t-84 21q-97 0 -161.5 -73t-92.5 -181l-149 -598q-13 -51 -13.5 -95z M573 1714h181l98 -268h-166zM666 1657l63 -156h37l-57 156h-43z" />
<glyph unicode="&#xf3;" d="M80.5 223q-4.5 71 17.5 152l158 633q43 168 156.5 277.5t279.5 109.5q69 0 120.5 -20t82 -55.5t45 -85t12.5 -106t-18 -120.5l-158 -633q-44 -177 -152.5 -282t-281.5 -105q-87 0 -146 30t-85 82t-30.5 123zM140.5 245.5q3.5 -60.5 24 -105.5t70 -71t121.5 -26 q144 0 234.5 90.5t128.5 241.5l158 633q19 67 16 127.5t-23.5 106t-69 72.5t-120.5 27q-139 0 -235 -95t-132 -238l-157 -633q-19 -69 -15.5 -129.5zM180.5 273.5q0.5 53.5 16.5 117.5l149 598q21 83 60.5 150.5t108.5 114t155 46.5q67 0 109.5 -25.5t58 -71t15 -98.5 t-16.5 -118l-152 -602q-34 -136 -112 -219.5t-207 -83.5q-67 0 -109.5 25t-59 69t-16 97.5zM238.5 296q-0.5 -44 11.5 -80.5t45 -57.5t84 -21q186 0 248 248l151 602q13 52 14.5 95.5t-10 81t-43.5 58.5t-84 21q-97 0 -161.5 -73t-92.5 -181l-149 -598q-13 -51 -13.5 -95z M590 1448l217 266h174l-240 -266h-151zM700 1503h27l137 154h-39z" />
<glyph unicode="&#xf4;" d="M80.5 223q-4.5 71 17.5 152l158 633q43 168 156.5 277.5t279.5 109.5q69 0 120.5 -20t82 -55.5t45 -85t12.5 -106t-18 -120.5l-158 -633q-44 -177 -152.5 -282t-281.5 -105q-87 0 -146 30t-85 82t-30.5 123zM140.5 245.5q3.5 -60.5 24 -105.5t70 -71t121.5 -26 q144 0 234.5 90.5t128.5 241.5l158 633q19 67 16 127.5t-23.5 106t-69 72.5t-120.5 27q-139 0 -235 -95t-132 -238l-157 -633q-19 -69 -15.5 -129.5zM180.5 273.5q0.5 53.5 16.5 117.5l149 598q21 83 60.5 150.5t108.5 114t155 46.5q67 0 109.5 -25.5t58 -71t15 -98.5 t-16.5 -118l-152 -602q-34 -136 -112 -219.5t-207 -83.5q-67 0 -109.5 25t-59 69t-16 97.5zM238.5 296q-0.5 -44 11.5 -80.5t45 -57.5t84 -21q186 0 248 248l151 602q13 52 14.5 95.5t-10 81t-43.5 58.5t-84 21q-97 0 -161.5 -73t-92.5 -181l-149 -598q-13 -51 -13.5 -95z M483 1434l215 286h129l80 -286h-151l-41 90l-80 -90h-152zM588 1491h30l113 133h12l54 -133h26l-45 172h-59z" />
<glyph unicode="&#xf5;" d="M80.5 223q-4.5 71 17.5 152l158 633q43 168 156.5 277.5t279.5 109.5q69 0 120.5 -20t82 -55.5t45 -85t12.5 -106t-18 -120.5l-158 -633q-44 -177 -152.5 -282t-281.5 -105q-87 0 -146 30t-85 82t-30.5 123zM140.5 245.5q3.5 -60.5 24 -105.5t70 -71t121.5 -26 q144 0 234.5 90.5t128.5 241.5l158 633q19 67 16 127.5t-23.5 106t-69 72.5t-120.5 27q-139 0 -235 -95t-132 -238l-157 -633q-19 -69 -15.5 -129.5zM180.5 273.5q0.5 53.5 16.5 117.5l149 598q21 83 60.5 150.5t108.5 114t155 46.5q67 0 109.5 -25.5t58 -71t15 -98.5 t-16.5 -118l-152 -602q-34 -136 -112 -219.5t-207 -83.5q-67 0 -109.5 25t-59 69t-16 97.5zM238.5 296q-0.5 -44 11.5 -80.5t45 -57.5t84 -21q186 0 248 248l151 602q13 52 14.5 95.5t-10 81t-43.5 58.5t-84 21q-97 0 -161.5 -73t-92.5 -181l-149 -598q-13 -51 -13.5 -95z M393 1583q56 33 87.5 51t77.5 36t77 18q29 0 60 -8.5t45 -15.5l48 -24h-2q66 -32 93 -32q15 0 47 14l35 18l81 -129q-160 -57 -206 -57q-69 0 -146 47q-6 3 -21.5 11.5t-23 12.5t-20 7.5t-23.5 3.5q-33 0 -123 -70zM477 1575l23 -31q57 47 116 47q43 0 114 -40t120 -40 q31 0 104 25l-24 33q-6 -2 -20.5 -7.5t-26 -8.5t-19.5 -3q-42 0 -116 41t-125 41q-55 0 -146 -57z" />
<glyph unicode="&#xf6;" d="M80.5 223q-4.5 71 17.5 152l158 633q43 168 156.5 277.5t279.5 109.5q69 0 120.5 -20t82 -55.5t45 -85t12.5 -106t-18 -120.5l-158 -633q-44 -177 -152.5 -282t-281.5 -105q-87 0 -146 30t-85 82t-30.5 123zM140.5 245.5q3.5 -60.5 24 -105.5t70 -71t121.5 -26 q144 0 234.5 90.5t128.5 241.5l158 633q19 67 16 127.5t-23.5 106t-69 72.5t-120.5 27q-139 0 -235 -95t-132 -238l-157 -633q-19 -69 -15.5 -129.5zM180.5 273.5q0.5 53.5 16.5 117.5l149 598q21 83 60.5 150.5t108.5 114t155 46.5q67 0 109.5 -25.5t58 -71t15 -98.5 t-16.5 -118l-152 -602q-34 -136 -112 -219.5t-207 -83.5q-67 0 -109.5 25t-59 69t-16 97.5zM238.5 296q-0.5 -44 11.5 -80.5t45 -57.5t84 -21q186 0 248 248l151 602q13 52 14.5 95.5t-10 81t-43.5 58.5t-84 21q-97 0 -161.5 -73t-92.5 -181l-149 -598q-13 -51 -13.5 -95z M483 1470l43 172h150l-43 -172h-150zM553 1526h39l14 59h-39zM780 1470l43 172h152l-43 -172h-152zM852 1526h37l14 59h-37z" />
<glyph unicode="&#xf8;" d="M-2 0l94 158q-24 98 10 229l152 608q41 168 153.5 276.5t280.5 108.5q93 0 166 -51l31 51h170l-119 -176q23 -96 -4 -209l-152 -608q-44 -175 -154 -281t-282 -106q-97 0 -164 43l-24 -43h-158zM88 57h39q7 12 23.5 35t23.5 35q67 -70 182 -70q144 0 237 90t130 240 l151 608q26 119 -2 205l82 125h-41q-40 -65 -53 -84q-77 84 -186 84q-140 0 -234 -93.5t-129 -236.5l-151 -608q-37 -141 -6 -223zM186 211q-11 102 9 176l151 608q30 124 113 208.5t205 84.5t170 -86q-147 -228 -648 -991zM203 172l641 985q8 -101 -6 -162l-152 -608 q-33 -129 -114.5 -212t-204.5 -83q-109 0 -164 80zM256 408q416 638 508 782q-35 43 -113 43q-94 0 -158.5 -68.5t-89.5 -169.5zM272 186q42 -36 109 -36q95 0 158 66.5t90 170.5l137 557zM766 944z" />
<glyph unicode="&#xf9;" horiz-adv-x="792" d="M86 350l256 1032h152l-256 -1022q-24 -100 8 -161.5t125 -61.5q94 0 157.5 61.5t87.5 161.5l256 1022h152l-258 -1032q-41 -165 -154 -263.5t-278 -98.5q-163 0 -226 98t-22 264zM143 350q-35 -139 17 -222t188 -83t231 83t130 222l243 975h-37l-241 -965 q-31 -126 -113 -203t-205 -77q-121 0 -164 77t-12 203l242 965h-37zM573 1714h181l98 -268h-166zM666 1657l63 -156h37l-57 156h-43z" />
<glyph unicode="&#xfa;" horiz-adv-x="792" d="M86 350l256 1032h152l-256 -1022q-24 -100 8 -161.5t125 -61.5q94 0 157.5 61.5t87.5 161.5l256 1022h152l-258 -1032q-41 -165 -154 -263.5t-278 -98.5q-163 0 -226 98t-22 264zM143 350q-35 -139 17 -222t188 -83t231 83t130 222l243 975h-37l-241 -965 q-31 -126 -113 -203t-205 -77q-121 0 -164 77t-12 203l242 965h-37zM569 1448l217 266h175l-240 -266h-152zM680 1503h27l137 154h-39z" />
<glyph unicode="&#xfb;" horiz-adv-x="792" d="M86 350l256 1032h152l-256 -1022q-24 -100 8 -161.5t125 -61.5q94 0 157.5 61.5t87.5 161.5l256 1022h152l-258 -1032q-41 -165 -154 -263.5t-278 -98.5q-163 0 -226 98t-22 264zM143 350q-35 -139 17 -222t188 -83t231 83t130 222l243 975h-37l-241 -965 q-31 -126 -113 -203t-205 -77q-121 0 -164 77t-12 203l242 965h-37zM481 1434l215 286h129l80 -286h-151l-41 90l-80 -90h-152zM586 1491h30l113 133h12l54 -133h26l-45 172h-59z" />
<glyph unicode="&#xfc;" horiz-adv-x="792" d="M86 350l256 1032h152l-256 -1022q-24 -100 8 -161.5t125 -61.5q94 0 157.5 61.5t87.5 161.5l256 1022h152l-258 -1032q-41 -165 -154 -263.5t-278 -98.5q-163 0 -226 98t-22 264zM143 350q-35 -139 17 -222t188 -83t231 83t130 222l243 975h-37l-241 -965 q-31 -126 -113 -203t-205 -77q-121 0 -164 77t-12 203l242 965h-37zM485 1470l43 172h150l-43 -172h-150zM555 1526h39l14 59h-39zM782 1470l43 172h152l-43 -172h-152zM854 1526h37l14 59h-37z" />
<glyph unicode="&#xfd;" horiz-adv-x="722" d="M248 0l155 629q-82 627 -94 751h160l68 -528q171 267 333 528h160l-475 -751l-156 -629h-151zM317 57h39l146 582l432 686h-39l-397 -635l-82 635h-39q5 -47 86 -686zM549 1448l217 266h174l-240 -266h-151zM659 1503h27l137 154h-39z" />
<glyph unicode="&#xfe;" horiz-adv-x="712" d="M10 0l344 1380h150l-78 -311q84 49 170 49q77 0 129.5 -29t75 -77t27 -111.5t-14.5 -132.5l-33 -131q-38 -151 -140 -250.5t-253 -99.5q-89 0 -145 47l-82 -334h-150zM80 57h35l104 416q23 -131 182 -131q122 0 206 84.5t116 210.5l33 131q17 79 10 144.5t-55 108 t-129 42.5q-79 0 -146 -37.5t-102 -95.5l98 395h-35zM253.5 553.5q1.5 47.5 16.5 103.5l23 93q14 56 35.5 102.5t54.5 87t81 63.5t107 23t96.5 -23t50.5 -63.5t12 -87.5t-15 -102l-23 -93q-15 -57 -37 -103.5t-55 -87.5t-81 -64t-107 -23t-96.5 23t-50.5 63.5t-11.5 88z M326 657q-56 -223 98 -223q84 0 135 62.5t76 160.5l22 93q52 219 -100 219q-84 0 -135 -61.5t-74 -157.5z" />
<glyph unicode="&#xff;" horiz-adv-x="722" d="M248 0l155 629q-82 627 -94 751h160l68 -528q171 267 333 528h160l-475 -751l-156 -629h-151zM317 57h39l146 582l432 686h-39l-397 -635l-82 635h-39q5 -47 86 -686zM473 1477l43 172h150l-43 -172h-150zM543 1532h39l14 59h-39zM770 1477l43 172h152l-43 -172h-152z M842 1532h37l14 59h-37z" />
<glyph unicode="&#x152;" horiz-adv-x="1212" d="M87 236.5q-4 71.5 19 154.5l154 613q41 170 155 280.5t283 110.5q109 0 183 -47l10 47h557l-37 -150h-407l-119 -473h254l-37 -149h-254l-117 -473h408l-37 -150h-557l12 57q-89 -57 -205 -57q-89 0 -149 30t-86 82.5t-30 124zM145 259q3 -61 24.5 -106t71.5 -70.5 t124 -25.5q187 0 290 164l-41 -164h445l10 35h-410l146 588h254l10 37h-254l146 586h409l8 34h-444l-35 -141q-6 49 -39 82t-77.5 46t-98.5 13q-142 0 -237.5 -93.5t-131.5 -239.5l-153 -613q-20 -71 -17 -132zM185 277q-3 54 14 114l153 613q32 129 115.5 214t208.5 85 q127 0 167 -83t7 -216l-150 -601q-22 -85 -62.5 -152.5t-109 -113t-153.5 -45.5q-65 0 -108.5 24t-61 65.5t-20.5 95.5zM256 391q-27 -105 4.5 -173t128.5 -68q96 0 161.5 72.5t92.5 180.5l150 601q27 108 -3 174.5t-128 66.5q-96 0 -161.5 -69t-90.5 -172z" />
<glyph unicode="&#x153;" horiz-adv-x="1267" d="M87 236.5q-4 71.5 19 154.5l154 613q41 170 155 280.5t283 110.5q109 0 183 -47l10 47h557l-37 -150h-407l-119 -473h254l-37 -149h-254l-117 -473h408l-37 -150h-557l12 57q-89 -57 -205 -57q-89 0 -149 30t-86 82.5t-30 124zM145 259q3 -61 24.5 -106t71.5 -70.5 t124 -25.5q187 0 290 164l-41 -164h445l10 35h-410l146 588h254l10 37h-254l146 586h409l8 34h-444l-35 -141q-6 49 -39 82t-77.5 46t-98.5 13q-142 0 -237.5 -93.5t-131.5 -239.5l-153 -613q-20 -71 -17 -132zM185 277q-3 54 14 114l153 613q32 129 115.5 214t208.5 85 q127 0 167 -83t7 -216l-150 -601q-22 -85 -62.5 -152.5t-109 -113t-153.5 -45.5q-65 0 -108.5 24t-61 65.5t-20.5 95.5zM256 391q-27 -105 4.5 -173t128.5 -68q96 0 161.5 72.5t92.5 180.5l150 601q27 108 -3 174.5t-128 66.5q-96 0 -161.5 -69t-90.5 -172z" />
<glyph unicode="&#x178;" horiz-adv-x="722" d="M248 0l155 629q-82 627 -94 751h160l68 -528q171 267 333 528h160l-475 -751l-156 -629h-151zM317 57h39l146 582l432 686h-39l-397 -635l-82 635h-39q5 -47 86 -686zM467 1442l43 172h149l-43 -172h-149zM537 1497h38l15 59h-39zM764 1442l43 172h151l-43 -172h-151z M836 1497h36l15 59h-37z" />
<glyph unicode="&#x2c6;" horiz-adv-x="380" d="M246 1096l215 286h129l80 -286h-152l-41 90l-80 -90h-151zM350 1153h31l113 133h12l53 -133h27l-45 172h-60z" />
<glyph unicode="&#x2dc;" horiz-adv-x="649" d="M303 1339q56 33 87.5 51t77.5 36t77 18q29 0 59.5 -8t46 -15.5t47.5 -23.5h-2q4 -2 18.5 -9t20 -9.5t16.5 -7t19.5 -6t17.5 -1.5q16 0 48 14l34 19l82 -129q-163 -58 -207 -58q-68 0 -145 47q-6 3 -21.5 11.5t-23 12.5t-20 7.5t-23.5 3.5q-34 0 -123 -69zM387 1331 l23 -31q58 48 116 48q43 0 114 -40t120 -40q34 0 104 24l-24 33q-60 -18 -66 -18q-36 0 -76 20.5t-82 41t-84 20.5q-53 0 -145 -58z" />
<glyph unicode="&#x2000;" horiz-adv-x="867" />
<glyph unicode="&#x2001;" horiz-adv-x="1735" />
<glyph unicode="&#x2002;" horiz-adv-x="867" />
<glyph unicode="&#x2003;" horiz-adv-x="1735" />
<glyph unicode="&#x2004;" horiz-adv-x="578" />
<glyph unicode="&#x2005;" horiz-adv-x="433" />
<glyph unicode="&#x2006;" horiz-adv-x="289" />
<glyph unicode="&#x2007;" horiz-adv-x="289" />
<glyph unicode="&#x2008;" horiz-adv-x="216" />
<glyph unicode="&#x2009;" horiz-adv-x="347" />
<glyph unicode="&#x200a;" horiz-adv-x="96" />
<glyph unicode="&#x2010;" horiz-adv-x="653" d="M162 610l37 150h555l-37 -150h-555zM233 666h443l8 36h-442z" />
<glyph unicode="&#x2011;" horiz-adv-x="653" d="M162 610l37 150h555l-37 -150h-555zM233 666h443l8 36h-442z" />
<glyph unicode="&#x2012;" horiz-adv-x="653" d="M162 610l37 150h555l-37 -150h-555zM233 666h443l8 36h-442z" />
<glyph unicode="&#x2013;" horiz-adv-x="653" d="M162 610l37 152h555l-37 -152h-555zM233 668h443l8 37h-442z" />
<glyph unicode="&#x2014;" horiz-adv-x="653" d="M162 610l37 152h555l-37 -152h-555zM233 668h443l8 37h-442z" />
<glyph unicode="&#x2018;" horiz-adv-x="206" d="M276 1122l66 258h150l-66 -258h-150zM346 1180h37l37 145h-37z" />
<glyph unicode="&#x2019;" horiz-adv-x="206" d="M276 1122l66 258h150l-66 -258h-150zM346 1180h37l37 145h-37z" />
<glyph unicode="&#x201a;" horiz-adv-x="202" d="M-106 -80l151 252h168l-168 -252h-151zM-10 -23h30l97 140h-45z" />
<glyph unicode="&#x201c;" horiz-adv-x="434" d="M276 1122l66 258h150l-66 -258h-150zM346 1180h37l37 145h-37zM481 1122l66 258h149l-65 -258h-150zM551 1180h37l37 145h-37z" />
<glyph unicode="&#x201d;" horiz-adv-x="391" d="M297 1122l65 258h150l-66 -258h-149zM367 1180h36l37 145h-37zM502 1122l65 258h150l-66 -258h-149zM571 1180h37l37 145h-37z" />
<glyph unicode="&#x201e;" horiz-adv-x="507" d="M-102 -80l151 252h166l-168 -252h-149zM-8 -23h33l94 140h-43zM172 -80l147 252h168l-170 -252h-145zM262 -23h33l94 140h-43z" />
<glyph unicode="&#x2022;" horiz-adv-x="368" d="M236 680q9 34 42 61t68 27q36 0 53 -27.5t9 -60.5q-8 -35 -38 -61.5t-67 -26.5q-36 0 -56 26t-11 62zM293 680q-3 -13 4.5 -22t19.5 -9t22 9.5t13 21.5q3 11 -2.5 21t-17.5 10t-24 -9.5t-15 -21.5z" />
<glyph unicode="&#x2026;" horiz-adv-x="686" d="M6 0l41 172h150l-41 -172h-150zM74 57h37l16 60h-37zM221 0l41 172h152l-41 -172h-152zM289 57h41l16 60h-41zM438 0l41 172h152l-41 -172h-152zM508 57h37l16 60h-37z" />
<glyph unicode="&#x202f;" horiz-adv-x="347" />
<glyph unicode="&#x2039;" horiz-adv-x="808" d="M188 690l717 690h191l-717 -690l373 -690h-189zM262 690l340 -633h45l-342 633l660 635h-45z" />
<glyph unicode="&#x203a;" horiz-adv-x="808" d="M-20 0l716 690q-48 90 -181.5 335.5t-190.5 354.5h188l373 -690l-717 -690h-188zM111 57h41l659 633l-342 635h-41l342 -635z" />
<glyph unicode="&#x205f;" horiz-adv-x="433" />
<glyph unicode="&#x20ac;" horiz-adv-x="790" d="M25 403l36 150h115l49 197h-114l36 147h115q15 60 26.5 101.5t32.5 96.5t43.5 92t57.5 76.5t77 63t99.5 38.5t126.5 15q67 0 136.5 -35t111.5 -100l-127 -102q-35 41 -78 65.5t-80 24.5q-95 0 -161 -68t-91 -170l-24 -98h311l-37 -147h-311l-49 -197h311l-37 -150h-311 q-9 -43 -12 -77t2 -68t20 -57t45 -37t74 -14q43 0 94.5 23t95.5 69q14 -7 30.5 -15.5t40.5 -21t39.5 -19.5t14.5 -6q-180 -180 -352 -180q-68 0 -118 14.5t-79.5 42.5t-46 63t-19 82.5t2.5 95t18 105.5h-114zM94 459h115q-14 -58 -21.5 -103t-9.5 -93.5t9.5 -83.5t34.5 -64 t66.5 -43.5t104.5 -14.5t131 28.5t119 74.5q-13 0 -37 12q-36 -38 -93 -58t-110 -20q-54 0 -92 14.5t-57.5 42t-29 60t-6.5 77t9.5 83.5t18.5 88h309l10 37h-309l76 309h309l10 37h-309l39 153q31 127 114 210t205 83q46 0 90 -18t72 -49l33 26q-23 37 -75.5 57.5 t-108.5 20.5q-60 0 -110 -16.5t-84.5 -35t-67 -64t-48.5 -70.5t-38 -90.5t-28 -87.5t-24 -96q-2 -5 -2.5 -8t-1.5 -7l-2 -8h-115l-10 -37h115l-76 -309h-115z" />
<glyph unicode="&#x25fc;" horiz-adv-x="1382" d="M0 0v1382h1382v-1382h-1382z" />
<glyph unicode="&#xfb01;" horiz-adv-x="673" d="M2 0l336 1350h557l-336 -1350h-145l299 1204h-267l-112 -456h244l-37 -144h-244l-150 -604h-145zM70 55h34l152 602h244l8 35h-244l142 568h376l-301 -1205h37l309 1239h-448z" />
<glyph unicode="&#xfb02;" horiz-adv-x="1083" d="M2 0l336 1350h557l-336 -1350h-145l299 1204h-267l-112 -456h244l-37 -144h-244l-150 -604h-145zM70 55h34l152 602h244l8 35h-244l142 568h376l-301 -1205h37l309 1239h-448z" />
</font>
</defs>
</svg>
